<svg xmlns="http://www.w3.org/2000/svg" width="600" height="600" viewBox="0 0 600 600">
 <path style="stroke: #0d71ba; stroke-width: 3; fill: none" d="m482.32 154.1c-44.17-54.917-110.84-86.872-181.32-86.901-70.61 0.084-137.37 32.214-181.49 87.351m-13.307 18.344c-24.727 37.79-37.93 81.95-38.001 127.11 0 128.57 104.23 232.8 232.8 232.8s232.8-104.23 232.8-232.8c-0.08-42.39-11.73-83.95-33.7-120.2"/>
 <g style="stroke: #0d71ba; stroke-dasharray: 9.13; stroke-width: 3; fill: none">
  <path d="m49.5 402.9c-13.1-31.7-20.3-66.5-20.3-102.9 0-13.9 1-27.5 3.1-40.8"/>
  <path d="m307.8 570.6c-2.6 0.1-5.2 0.1-7.8 0.1-38.8 0-75.7-8.2-109-22.8"/>
  <path d="m470.5 510.3c-29.1 23.6-63.2 41.3-100.4 51.3"/>
  <path d="m560.5 226c6.7 23.5 10.2 48.3 10.2 74 0 28-4.3 55.1-12.2 80.5"/>
  <path d="m169.9 62.5c38.6-21.2 83-33.3 130.1-33.3 28 0 55.1 4.3 80.5 12.2"/>
 </g>
 <path style="fill: #0d71ba" d="m106.2 190.8c-3.89 1.11-7.758 2.27-11.6 3.5l-20.2 6.5v259.3l43.5-14.1c27.7-8.9 56.9-13.5 86.8-13.5 22.7 0 45.1 2.6 66.6 7.8 11.64 2.78 20.56 5.83 31.85 9.5 10.54-3.54 22.28-7.09 31.85-9.5v0.1c21.5-5.2 43.8-7.8 66.6-7.8 29.9 0 59.2 4.5 86.8 13.5l43.5 14.1v-259.4l-20.2-6.5c-3.84-1.24-7.71-2.39-11.6-3.5v228.91c-54.08-23.26-126.72-24.54-196.95 0-84.66-25.46-132.6-21.64-196.95 0v-228.91z"/>
 <path style="stroke: #0d71ba; stroke-width: 2; fill: #7fb5dd" d="m500.1 171.01v248.7c-54.08-23.26-126.72-24.54-196.95 0-84.66-25.46-132.6-21.64-196.95 0v-248.68c-2.14 0.73-4.27 1.49-6.399 2.27l-10.401 3.8v264.7l23.3-8.6c29.3-10.8 60.3-16.3 92-16.3 37.72 1.45 66.37 6.86 98.4 18.7 31.57-11.99 69.13-18.53 98.5-18.7 31.7 0 62.7 5.5 92 16.3l23.3 8.6v-264.6l-10.4-3.9c-2.13-0.79-4.26-1.55-6.4-2.29z"/>
 <g style="stroke: #0d71ba; fill: none">
  <path style="stroke-width: .8751" d="m331.1 188.5a9.1886 9.1886 0 0 0 -9.1894 9.1894 9.1886 9.1886 0 0 0 9.1894 9.1875 9.1886 9.1886 0 0 0 9.1875 -9.1875 9.1886 9.1886 0 0 0 -9.1875 -9.1894zm-20.391 0.78711a8.401 8.401 0 0 0 -8.4004 8.4023 8.401 8.401 0 0 0 8.4004 8.4004 8.401 8.401 0 0 0 8.4004 -8.4004 8.401 8.401 0 0 0 -8.4004 -8.4023zm-18.465 0.875a7.5259 7.5259 0 0 0 -7.5254 7.5273 7.5259 7.5259 0 0 0 7.5254 7.5254 7.5259 7.5259 0 0 0 7.5254 -7.5254 7.5259 7.5259 0 0 0 -7.5254 -7.5273zm-16.801 0.78906a6.7383 6.7383 0 0 0 -6.7383 6.7383 6.7383 6.7383 0 0 0 6.7383 6.7383 6.7383 6.7383 0 0 0 6.7383 -6.7383 6.7383 6.7383 0 0 0 -6.7383 -6.7383zm-16.715 0.78711a5.9507 5.9507 0 0 0 -5.9512 5.9512 5.9507 5.9507 0 0 0 5.9512 5.9492 5.9507 5.9507 0 0 0 5.9512 -5.9492 5.9507 5.9507 0 0 0 -5.9512 -5.9512zm-16.715 0.78711a5.1631 5.1631 0 0 0 -5.1641 5.1641 5.1631 5.1631 0 0 0 5.1641 5.1621 5.1631 5.1631 0 0 0 5.1621 -5.1621 5.1631 5.1631 0 0 0 -5.1621 -5.1641zm-14.965 0.78711a4.3755 4.3755 0 0 0 -4.375 4.377 4.3755 4.3755 0 0 0 4.375 4.375 4.3755 4.3755 0 0 0 4.377 -4.375 4.3755 4.3755 0 0 0 -4.377 -4.377zm-14.352 0.78906a3.5879 3.5879 0 0 0 -3.5879 3.5879 3.5879 3.5879 0 0 0 3.5879 3.5879 3.5879 3.5879 0 0 0 3.5879 -3.5879 3.5879 3.5879 0 0 0 -3.5879 -3.5879zm-13.127 0.78711a2.8003 2.8003 0 0 0 -2.7988 2.8008 2.8003 2.8003 0 0 0 2.7988 2.7988 2.8003 2.8003 0 0 0 2.8008 -2.7988 2.8003 2.8003 0 0 0 -2.8008 -2.8008zm-13.125 0.78711a2.0127 2.0127 0 0 0 -2.0137 2.0137 2.0127 2.0127 0 0 0 2.0137 2.0117 2.0127 2.0127 0 0 0 2.0117 -2.0117 2.0127 2.0127 0 0 0 -2.0117 -2.0137zm129.78 23.615a9.1886 9.1886 0 0 0 -9.1895 9.1875 9.1886 9.1886 0 0 0 9.1895 9.1894 9.1886 9.1886 0 0 0 9.1875 -9.1894 9.1886 9.1886 0 0 0 -9.1875 -9.1875zm-20.303 0.7871a8.401 8.401 0 0 0 -8.4004 8.4004 8.401 8.401 0 0 0 8.4004 8.4023 8.401 8.401 0 0 0 8.4004 -8.4023 8.401 8.401 0 0 0 -8.4004 -8.4004zm-18.553 0.875a7.5259 7.5259 0 0 0 -7.5254 7.5254 7.5259 7.5259 0 0 0 7.5254 7.5273 7.5259 7.5259 0 0 0 7.5273 -7.5273 7.5259 7.5259 0 0 0 -7.5273 -7.5254zm-16.715 0.78711a6.7383 6.7383 0 0 0 -6.7383 6.7383 6.7383 6.7383 0 0 0 6.7383 6.7383 6.7383 6.7383 0 0 0 6.7383 -6.7383 6.7383 6.7383 0 0 0 -6.7383 -6.7383zm-16.713 0.78907a5.9507 5.9507 0 0 0 -5.9512 5.9492 5.9507 5.9507 0 0 0 5.9512 5.9512 5.9507 5.9507 0 0 0 5.9492 -5.9512 5.9507 5.9507 0 0 0 -5.9492 -5.9492zm-16.803 0.78711a5.1631 5.1631 0 0 0 -5.1621 5.1621 5.1631 5.1631 0 0 0 5.1621 5.1641 5.1631 5.1631 0 0 0 5.1641 -5.1641 5.1631 5.1631 0 0 0 -5.1641 -5.1621zm-14.877 0.78711a4.3755 4.3755 0 0 0 -4.375 4.375 4.3755 4.3755 0 0 0 4.375 4.377 4.3755 4.3755 0 0 0 4.375 -4.377 4.3755 4.3755 0 0 0 -4.375 -4.375zm-14.352 0.7871a3.5879 3.5879 0 0 0 -3.5879 3.5879 3.5879 3.5879 0 0 0 3.5879 3.5879 3.5879 3.5879 0 0 0 3.5879 -3.5879 3.5879 3.5879 0 0 0 -3.5879 -3.5879zm-13.127 0.78907a2.8003 2.8003 0 0 0 -2.7988 2.7988 2.8003 2.8003 0 0 0 2.7988 2.8008 2.8003 2.8003 0 0 0 2.8008 -2.8008 2.8003 2.8003 0 0 0 -2.8008 -2.7988zm-13.125 0.78711a2.0127 2.0127 0 0 0 -2.0137 2.0117 2.0127 2.0127 0 0 0 2.0137 2.0137 2.0127 2.0127 0 0 0 2.0117 -2.0137 2.0127 2.0127 0 0 0 -2.0117 -2.0117zm132.75 23.527a9.1886 9.1886 0 0 0 -9.1875 9.1894 9.1886 9.1886 0 0 0 9.1875 9.1875 9.1886 9.1886 0 0 0 9.1895 -9.1875 9.1886 9.1886 0 0 0 -9.1895 -9.1894zm-20.391 0.78711a8.401 8.401 0 0 0 -8.4004 8.4023 8.401 8.401 0 0 0 8.4004 8.4004 8.401 8.401 0 0 0 8.4023 -8.4004 8.401 8.401 0 0 0 -8.4023 -8.4023zm-18.463 0.875a7.5259 7.5259 0 0 0 -7.5274 7.5273 7.5259 7.5259 0 0 0 7.5274 7.5254 7.5259 7.5259 0 0 0 7.5254 -7.5254 7.5259 7.5259 0 0 0 -7.5254 -7.5273zm-16.803 0.78906a6.7383 6.7383 0 0 0 -6.7383 6.7383 6.7383 6.7383 0 0 0 6.7383 6.7383 6.7383 6.7383 0 0 0 6.7383 -6.7383 6.7383 6.7383 0 0 0 -6.7383 -6.7383zm-16.715 0.78711a5.9507 5.9507 0 0 0 -5.9512 5.9512 5.9507 5.9507 0 0 0 5.9512 5.9492 5.9507 5.9507 0 0 0 5.9512 -5.9492 5.9507 5.9507 0 0 0 -5.9512 -5.9512zm-16.715 0.78711a5.1631 5.1631 0 0 0 -5.1621 5.1641 5.1631 5.1631 0 0 0 5.1621 5.1621 5.1631 5.1631 0 0 0 5.1641 -5.1621 5.1631 5.1631 0 0 0 -5.1641 -5.1641zm-14.963 0.78711a4.3755 4.3755 0 0 0 -4.377 4.377 4.3755 4.3755 0 0 0 4.377 4.375 4.3755 4.3755 0 0 0 4.375 -4.375 4.3755 4.3755 0 0 0 -4.375 -4.377zm-14.352 0.78906a3.5879 3.5879 0 0 0 -3.5879 3.5879 3.5879 3.5879 0 0 0 3.5879 3.5879 3.5879 3.5879 0 0 0 3.5879 -3.5879 3.5879 3.5879 0 0 0 -3.5879 -3.5879zm-13.127 0.78711a2.8003 2.8003 0 0 0 -2.8008 2.8008 2.8003 2.8003 0 0 0 2.8008 2.7988 2.8003 2.8003 0 0 0 2.8008 -2.7988 2.8003 2.8003 0 0 0 -2.8008 -2.8008zm-13.127 0.78711a2.0127 2.0127 0 0 0 -2.0117 2.0137 2.0127 2.0127 0 0 0 2.0117 2.0117 2.0127 2.0127 0 0 0 2.0137 -2.0117 2.0127 2.0127 0 0 0 -2.0137 -2.0137zm133.54 21.777a9.1886 9.1886 0 0 0 -9.1894 9.1894 9.1886 9.1886 0 0 0 9.1894 9.1875 9.1886 9.1886 0 0 0 9.1875 -9.1875 9.1886 9.1886 0 0 0 -9.1875 -9.1894zm22.928 0.34961a9.1886 9.1886 0 0 0 -9.1895 9.1894 9.1886 9.1886 0 0 0 9.1895 9.1875 9.1886 9.1886 0 0 0 9.1875 -9.1875 9.1886 9.1886 0 0 0 -9.1875 -9.1894zm-43.318 0.4375a8.401 8.401 0 0 0 -8.4004 8.4023 8.401 8.401 0 0 0 8.4004 8.4004 8.401 8.401 0 0 0 8.4023 -8.4004 8.401 8.401 0 0 0 -8.4023 -8.4023zm-18.553 0.875a7.5259 7.5259 0 0 0 -7.5254 7.5273 7.5259 7.5259 0 0 0 7.5254 7.5254 7.5259 7.5259 0 0 0 7.5274 -7.5254 7.5259 7.5259 0 0 0 -7.5274 -7.5273zm-16.713 0.78906a6.7383 6.7383 0 0 0 -6.7383 6.7383 6.7383 6.7383 0 0 0 6.7383 6.7383 6.7383 6.7383 0 0 0 6.7383 -6.7383 6.7383 6.7383 0 0 0 -6.7383 -6.7383zm-16.715 0.78711a5.9507 5.9507 0 0 0 -5.9512 5.9512 5.9507 5.9507 0 0 0 5.9512 5.9492 5.9507 5.9507 0 0 0 5.9512 -5.9492 5.9507 5.9507 0 0 0 -5.9512 -5.9512zm-16.715 0.78711a5.1631 5.1631 0 0 0 -5.1621 5.1641 5.1631 5.1631 0 0 0 5.1621 5.1621 5.1631 5.1631 0 0 0 5.1641 -5.1621 5.1631 5.1631 0 0 0 -5.1641 -5.1641zm-14.965 0.78711a4.3755 4.3755 0 0 0 -4.375 4.377 4.3755 4.3755 0 0 0 4.375 4.375 4.3755 4.3755 0 0 0 4.377 -4.375 4.3755 4.3755 0 0 0 -4.377 -4.377zm-14.352 0.78906a3.5879 3.5879 0 0 0 -3.5879 3.5879 3.5879 3.5879 0 0 0 3.5879 3.5879 3.5879 3.5879 0 0 0 3.5879 -3.5879 3.5879 3.5879 0 0 0 -3.5879 -3.5879zm-13.125 0.78711a2.8003 2.8003 0 0 0 -2.8008 2.8008 2.8003 2.8003 0 0 0 2.8008 2.7988 2.8003 2.8003 0 0 0 2.7988 -2.7988 2.8003 2.8003 0 0 0 -2.7988 -2.8008zm-13.127 0.78711a2.0127 2.0127 0 0 0 -2.0137 2.0137 2.0127 2.0127 0 0 0 2.0137 2.0117 2.0127 2.0127 0 0 0 2.0117 -2.0117 2.0127 2.0127 0 0 0 -2.0117 -2.0137zm133.54 23.615a9.1886 9.1886 0 0 0 -9.1894 9.1875 9.1886 9.1886 0 0 0 9.1894 9.1894 9.1886 9.1886 0 0 0 9.1875 -9.1894 9.1886 9.1886 0 0 0 -9.1875 -9.1875zm22.227 0a9.1886 9.1886 0 0 0 -9.1875 9.1875 9.1886 9.1886 0 0 0 9.1875 9.1894 9.1886 9.1886 0 0 0 9.1895 -9.1894 9.1886 9.1886 0 0 0 -9.1895 -9.1875zm-42.617 0.78711a8.401 8.401 0 0 0 -8.4004 8.4004 8.401 8.401 0 0 0 8.4004 8.4023 8.401 8.401 0 0 0 8.4004 -8.4023 8.401 8.401 0 0 0 -8.4004 -8.4004zm-18.553 0.875a7.5259 7.5259 0 0 0 -7.5254 7.5254 7.5259 7.5259 0 0 0 7.5254 7.5273 7.5259 7.5259 0 0 0 7.5254 -7.5273 7.5259 7.5259 0 0 0 -7.5254 -7.5254zm-16.715 0.78711a6.7383 6.7383 0 0 0 -6.7383 6.7383 6.7383 6.7383 0 0 0 6.7383 6.7383 6.7383 6.7383 0 0 0 6.7383 -6.7383 6.7383 6.7383 0 0 0 -6.7383 -6.7383zm-16.713 0.78906a5.9507 5.9507 0 0 0 -5.9512 5.9492 5.9507 5.9507 0 0 0 5.9512 5.9512 5.9507 5.9507 0 0 0 5.9492 -5.9512 5.9507 5.9507 0 0 0 -5.9492 -5.9492zm-16.715 0.78711a5.1631 5.1631 0 0 0 -5.1641 5.1621 5.1631 5.1631 0 0 0 5.1641 5.1641 5.1631 5.1631 0 0 0 5.1621 -5.1641 5.1631 5.1631 0 0 0 -5.1621 -5.1621zm-14.965 0.78711a4.3755 4.3755 0 0 0 -4.375 4.375 4.3755 4.3755 0 0 0 4.375 4.377 4.3755 4.3755 0 0 0 4.375 -4.377 4.3755 4.3755 0 0 0 -4.375 -4.375zm-14.352 0.78711a3.5879 3.5879 0 0 0 -3.5879 3.5879 3.5879 3.5879 0 0 0 3.5879 3.5898 3.5879 3.5879 0 0 0 3.5879 -3.5898 3.5879 3.5879 0 0 0 -3.5879 -3.5879zm-13.127 0.78906a2.8003 2.8003 0 0 0 -2.7988 2.7988 2.8003 2.8003 0 0 0 2.7988 2.8008 2.8003 2.8003 0 0 0 2.8008 -2.8008 2.8003 2.8003 0 0 0 -2.8008 -2.7988zm-13.125 0.78711a2.0127 2.0127 0 0 0 -2.0137 2.0117 2.0127 2.0127 0 0 0 2.0137 2.0137 2.0127 2.0127 0 0 0 2.0117 -2.0137 2.0127 2.0127 0 0 0 -2.0117 -2.0117zm134.24 23.527a9.1886 9.1886 0 0 0 -9.1895 9.1894 9.1886 9.1886 0 0 0 9.1895 9.1875 9.1886 9.1886 0 0 0 9.1875 -9.1875 9.1886 9.1886 0 0 0 -9.1875 -9.1894zm-20.303 0.78711a8.401 8.401 0 0 0 -8.4004 8.4023 8.401 8.401 0 0 0 8.4004 8.4004 8.401 8.401 0 0 0 8.4004 -8.4004 8.401 8.401 0 0 0 -8.4004 -8.4023zm-18.553 0.875a7.5259 7.5259 0 0 0 -7.5254 7.5273 7.5259 7.5259 0 0 0 7.5254 7.5254 7.5259 7.5259 0 0 0 7.5254 -7.5254 7.5259 7.5259 0 0 0 -7.5254 -7.5273zm-16.801 0.78906a6.7383 6.7383 0 0 0 -6.7383 6.7383 6.7383 6.7383 0 0 0 6.7383 6.7383 6.7383 6.7383 0 0 0 6.7383 -6.7383 6.7383 6.7383 0 0 0 -6.7383 -6.7383zm-16.715 0.78711a5.9507 5.9507 0 0 0 -5.9512 5.9512 5.9507 5.9507 0 0 0 5.9512 5.9492 5.9507 5.9507 0 0 0 5.9512 -5.9492 5.9507 5.9507 0 0 0 -5.9512 -5.9512zm-16.715 0.78711a5.1631 5.1631 0 0 0 -5.1621 5.1641 5.1631 5.1631 0 0 0 5.1621 5.1621 5.1631 5.1631 0 0 0 5.1641 -5.1621 5.1631 5.1631 0 0 0 -5.1641 -5.1641zm-14.965 0.78711a4.3755 4.3755 0 0 0 -4.375 4.377 4.3755 4.3755 0 0 0 4.375 4.375 4.3755 4.3755 0 0 0 4.377 -4.375 4.3755 4.3755 0 0 0 -4.377 -4.377zm-14.352 0.78906a3.5879 3.5879 0 0 0 -3.5879 3.5879 3.5879 3.5879 0 0 0 3.5879 3.5879 3.5879 3.5879 0 0 0 3.5879 -3.5879 3.5879 3.5879 0 0 0 -3.5879 -3.5879zm-13.125 0.78711a2.8003 2.8003 0 0 0 -2.8008 2.8008 2.8003 2.8003 0 0 0 2.8008 2.7988 2.8003 2.8003 0 0 0 2.7988 -2.7988 2.8003 2.8003 0 0 0 -2.7988 -2.8008zm-13.127 0.78711a2.0127 2.0127 0 0 0 -2.0137 2.0137 2.0127 2.0127 0 0 0 2.0137 2.0117 2.0127 2.0127 0 0 0 2.0117 -2.0117 2.0127 2.0127 0 0 0 -2.0117 -2.0137z"/>
  <g style="stroke-linecap: round">
   <circle style="stroke-width: 19.487" r="59.4" cy="251.6" cx="411.6"/>
   <line style="stroke-width: 22.028" y2="370.3" y1="299.3" x2="307.5" x1="373"/>
   <polyline style="stroke-width: 7.6252; stroke-linejoin: round" points="436.2 244.5 409.6 259.3 409 222.1"/>
   <g style="stroke-width: 2.5417">
    <line x2="409" y1="207.1" x1="409" y2="211.6"/>
    <line x2="374" y1="258.5" x1="369.5" y2="258.5"/>
    <line x2="454.5" y1="258.5" x1="450" y2="258.5"/>
    <line x2="409" y1="291.8" x1="409" y2="296.3"/>
   </g>
  </g>
  <path style="stroke-width: 2" d="m106.2 159.5v260.2c64.354-21.635 112.29-25.455 196.95 0 70.231-24.537 142.87-23.255 196.95 0v-260.31c-71.38-23.65-146.26-25.99-196.95-0.1-64.32-22.9-135.61-24.7-196.95 0.21z"/>
 </g>
</svg>
