<svg xmlns="http://www.w3.org/2000/svg" width="600" height="600" viewBox="0 0 600 600">
 <g>
  <path fill="#7fb5dd" d="m358.2 111.46c-1.08 0-1.93 0.29-2.56 0.89-0.59 0.56-0.89 1.26-0.89 2.08s0.29 1.52 0.89 2.08c0.62 0.54 1.47 0.81 2.56 0.81 1.08 0 1.94-0.27 2.6-0.81 0.68-0.56 1.02-1.26 1.02-2.08s-0.34-1.52-1.02-2.08c-0.65-0.59-1.52-0.89-2.6-0.89zm-141.09 0.25-10.75 30.08h5.84l2.26-6.61h9.17l2.38 6.61h6.14l-10.75-30.08zm93.2 3.15-5.54 1.58v4h-2.94v4.69h2.94v10.75c0 2.3 0.45 3.96 1.36 4.99 0.93 0.99 2.38 1.49 4.35 1.49 1.05 0 2.09-0.12 3.11-0.38s1.91-0.56 2.68-0.93l-0.98-4.26c-0.51 0.22-0.98 0.39-1.4 0.51-0.39 0.11-0.88 0.16-1.45 0.16-0.82 0-1.39-0.31-1.7-0.93-0.28-0.65-0.42-1.72-0.42-3.2v-8.19h5.2v-4.69h-5.2zm36.08 0-5.54 1.58v4h-2.94v4.69h2.94v10.75c0 2.3 0.45 3.96 1.36 4.99 0.93 0.99 2.38 1.49 4.35 1.49 1.05 0 2.08-0.12 3.11-0.38s1.92-0.56 2.68-0.93l-0.98-4.26c-0.51 0.22-0.98 0.39-1.4 0.51-0.39 0.11-0.88 0.16-1.44 0.16-0.82 0-1.39-0.31-1.7-0.93-0.28-0.65-0.42-1.72-0.42-3.2v-8.19h5.2v-4.69h-5.2zm-127.37 4.26h0.21l0.89 4.69 2.21 6.65h-6.4l2.17-6.61zm27.58 0.72c-1.7 0-3.1 0.34-4.18 1.02s-1.94 1.47-2.6 2.38h-0.16l-0.64-2.81h-4.39v21.33h5.54v-13.82c0.31-0.91 0.82-1.66 1.53-2.26 0.73-0.62 1.63-0.93 2.68-0.93 1.19 0 2.03 0.38 2.51 1.15 0.51 0.76 0.76 2.02 0.76 3.75v12.11h5.54v-13.27c0-1.64-0.14-3.02-0.42-4.13-0.28-1.13-0.71-2.03-1.27-2.68s-1.26-1.12-2.09-1.4-1.76-0.42-2.81-0.42zm23.25 0c-1.7 0-3.1 0.34-4.18 1.02s-1.94 1.47-2.6 2.38h-0.16l-0.64-2.81h-4.39v21.33h5.54v-13.82c0.31-0.91 0.82-1.66 1.53-2.26 0.73-0.62 1.63-0.93 2.68-0.93 1.19 0 2.03 0.38 2.51 1.15 0.51 0.76 0.76 2.02 0.76 3.75v12.11h5.54v-13.27c0-1.64-0.14-3.02-0.42-4.13-0.28-1.13-0.71-2.03-1.27-2.68s-1.26-1.12-2.09-1.4-1.76-0.42-2.81-0.42zm20.3 0c-3.18 0-5.66 0.98-7.42 2.94-1.76 1.93-2.64 4.7-2.64 8.32 0 1.67 0.19 3.21 0.59 4.6 0.42 1.39 1.05 2.58 1.87 3.58 0.85 0.96 1.9 1.72 3.15 2.26s2.73 0.81 4.43 0.81c3.18 0 5.64-0.96 7.38-2.9 1.76-1.96 2.64-4.74 2.64-8.36 0-1.67-0.21-3.21-0.64-4.6-0.39-1.39-1-2.57-1.83-3.54-0.82-0.99-1.86-1.76-3.11-2.3s-2.73-0.81-4.43-0.81zm85.41 0c-3.18 0-5.66 0.98-7.42 2.94-1.76 1.93-2.64 4.7-2.64 8.32 0 1.67 0.19 3.21 0.59 4.6 0.42 1.39 1.05 2.58 1.87 3.58 0.85 0.96 1.9 1.72 3.15 2.26s2.73 0.81 4.43 0.81c3.18 0 5.64-0.96 7.38-2.9 1.76-1.96 2.64-4.74 2.64-8.36 0-1.67-0.21-3.21-0.63-4.6-0.39-1.39-1.01-2.57-1.83-3.54-0.82-0.99-1.86-1.76-3.11-2.3s-2.73-0.81-4.43-0.81zm25.85 0c-1.7 0-3.1 0.34-4.18 1.02s-1.94 1.47-2.6 2.38h-0.16l-0.64-2.81h-4.39v21.33h5.54v-13.82c0.31-0.91 0.82-1.66 1.53-2.26 0.73-0.62 1.63-0.93 2.68-0.93 1.19 0 2.03 0.38 2.51 1.15 0.51 0.76 0.76 2.02 0.76 3.75v12.11h5.54v-13.27c0-1.64-0.14-3.02-0.42-4.13-0.28-1.13-0.71-2.03-1.27-2.68s-1.26-1.12-2.09-1.4-1.76-0.42-2.81-0.42zm55.25 0c-1.7 0-3.1 0.34-4.18 1.02s-1.94 1.47-2.6 2.38h-0.16l-0.64-2.81h-4.39v21.33h5.54v-13.82c0.31-0.91 0.82-1.66 1.53-2.26 0.73-0.62 1.63-0.93 2.68-0.93 1.19 0 2.03 0.38 2.51 1.15 0.51 0.76 0.76 2.02 0.76 3.75v12.11h5.54v-13.27c0-1.64-0.14-3.02-0.42-4.13-0.28-1.13-0.71-2.03-1.27-2.68s-1.26-1.12-2.09-1.4-1.76-0.42-2.81-0.42zm-128.91 0.17c-1.7 0-3.34 0.15-4.9 0.46-1.56 0.28-2.91 0.68-4.05 1.19l1.32 4.13c0.79-0.36 1.8-0.66 3.02-0.89 1.25-0.22 2.43-0.34 3.54-0.34 1.47 0 2.43 0.35 2.85 1.06 0.42 0.68 0.54 1.82 0.34 3.41-1.87-0.08-3.58-0.01-5.11 0.21-1.5 0.19-2.81 0.58-3.92 1.15-1.08 0.54-1.92 1.26-2.51 2.17-0.56 0.88-0.85 1.97-0.85 3.28 0 0.93 0.15 1.79 0.46 2.56 0.31 0.73 0.75 1.39 1.32 1.96 0.56 0.54 1.25 0.96 2.04 1.27 0.79 0.28 1.69 0.42 2.68 0.42 1.59 0 2.88-0.31 3.88-0.93 1.02-0.65 1.82-1.42 2.39-2.3h0.21l0.89 2.94h4.52c-0.34-1.02-0.55-2.1-0.63-3.24-0.08-1.16-0.12-2.36-0.12-3.58 0.02-1.22 0.08-2.45 0.16-3.71 0.08-1.28 0.12-2.54 0.12-3.79 0-1.13-0.12-2.16-0.38-3.07-0.22-0.91-0.63-1.69-1.23-2.34-0.56-0.65-1.35-1.15-2.34-1.49-0.99-0.36-2.23-0.55-3.71-0.55zm104.58 0c-1.7 0-3.34 0.15-4.9 0.46-1.56 0.28-2.91 0.68-4.05 1.19l1.32 4.13c0.79-0.36 1.8-0.66 3.02-0.89 1.25-0.22 2.43-0.34 3.54-0.34 1.47 0 2.43 0.35 2.85 1.06 0.42 0.68 0.54 1.82 0.34 3.41-1.87-0.08-3.58-0.01-5.12 0.21-1.5 0.19-2.81 0.58-3.92 1.15-1.08 0.54-1.91 1.26-2.51 2.17-0.56 0.88-0.85 1.97-0.85 3.28 0 0.93 0.15 1.79 0.46 2.56 0.31 0.73 0.75 1.39 1.32 1.96 0.56 0.54 1.25 0.96 2.04 1.27 0.79 0.28 1.69 0.42 2.68 0.42 1.59 0 2.88-0.31 3.88-0.93 1.02-0.65 1.81-1.42 2.38-2.3h0.21l0.89 2.94h4.52c-0.34-1.02-0.55-2.1-0.64-3.24-0.08-1.16-0.12-2.36-0.12-3.58 0.02-1.22 0.08-2.45 0.16-3.71 0.08-1.28 0.12-2.54 0.12-3.79 0-1.13-0.12-2.16-0.38-3.07-0.22-0.91-0.64-1.69-1.23-2.34-0.56-0.65-1.35-1.15-2.34-1.49-0.99-0.36-2.23-0.55-3.71-0.55zm-76.81 0.42v21.33h5.54v-21.33zm-65.38 4.09c1.56 0 2.67 0.61 3.32 1.83 0.65 1.19 0.98 2.77 0.98 4.73 0 2.27-0.35 3.93-1.06 4.99-0.71 1.05-1.79 1.58-3.24 1.58-0.76 0-1.43-0.15-2-0.47-0.54-0.34-0.98-0.8-1.32-1.4s-0.59-1.29-0.76-2.09c-0.17-0.79-0.25-1.66-0.25-2.6 0-2.33 0.38-4.01 1.15-5.03s1.83-1.53 3.19-1.53zm85.41 0c1.56 0 2.67 0.61 3.32 1.83 0.65 1.19 0.98 2.77 0.98 4.73 0 2.27-0.35 3.93-1.06 4.99-0.71 1.05-1.79 1.58-3.24 1.58-0.76 0-1.43-0.15-2-0.47-0.54-0.34-0.98-0.8-1.32-1.4s-0.59-1.29-0.76-2.09c-0.17-0.79-0.25-1.66-0.25-2.6 0-2.33 0.38-4.01 1.15-5.03s1.83-1.53 3.2-1.53zm92.59 0.41c-0.82 1.76-1.24 3.92-1.24 6.49 0 3.75 0.73 6.51 2.21 8.27 1.47 1.76 3.55 2.64 6.23 2.64 1.45 0 2.7-0.29 3.75-0.89 1.08-0.62 1.9-1.43 2.47-2.43h0.05a243 243 0 0 0 -2.14 -2.44c-0.09 0.1-0.19 0.21-0.3 0.3-0.62 0.51-1.47 0.76-2.56 0.76-1.39 0-2.41-0.55-3.07-1.66-0.62-1.1-0.93-2.57-0.93-4.39 0-0.88 0.06-1.64 0.15-2.35a243 243 0 0 0 -4.62 -4.31zm-139.51 7.39c0.42 0.007 0.85 0.03 1.3 0.07v2.77c-0.31 0.56-0.79 1.1-1.45 1.62-0.65 0.48-1.53 0.72-2.64 0.72-0.82 0-1.47-0.21-1.96-0.64-0.45-0.45-0.68-1.08-0.68-1.87 0-0.56 0.18-1.03 0.55-1.4 0.36-0.36 0.86-0.65 1.49-0.85 0.62-0.19 1.33-0.32 2.13-0.38 0.41-0.02 0.83-0.04 1.25-0.03zm104.58 0c0.42 0.007 0.86 0.03 1.3 0.07v2.77c-0.31 0.56-0.79 1.1-1.45 1.62-0.65 0.48-1.53 0.72-2.64 0.72-0.82 0-1.47-0.21-1.96-0.64-0.45-0.45-0.68-1.08-0.68-1.87 0-0.56 0.18-1.03 0.55-1.4 0.36-0.36 0.86-0.65 1.49-0.85 0.62-0.19 1.33-0.32 2.13-0.38 0.41-0.02 0.83-0.04 1.25-0.03zm48.58 6.87 0.71 2.58h1.55a243 243 0 0 0 -2.27 -2.58zm-88.18 47.27c-1.26 0-2.47 0.13-3.62 0.41-1.12 0.27-2.1 0.7-2.95 1.3-0.82 0.59-1.48 1.36-1.97 2.31-0.47 0.94-0.7 2.07-0.7 3.39 0 1.24 0.22 2.29 0.67 3.13 0.47 0.84 1.05 1.58 1.75 2.2 0.69 0.62 1.44 1.16 2.24 1.64 0.82 0.47 1.58 0.96 2.27 1.49 0.69 0.49 1.26 1.05 1.71 1.67 0.47 0.62 0.7 1.38 0.7 2.27 0 0.87-0.19 1.59-0.59 2.16-0.37 0.57-0.86 1.03-1.49 1.38-0.62 0.34-1.32 0.59-2.09 0.74-0.77 0.12-1.54 0.18-2.31 0.18-1.34 0-2.51-0.14-3.5-0.44-0.97-0.32-1.74-0.64-2.31-0.97l-1.53 2.72c0.59 0.34 1.46 0.65 2.61 0.93 1.16 0.29 2.59 0.44 4.25 0.44 3.26 0 5.76-0.64 7.5-1.94 1.74-1.31 2.61-3.18 2.61-5.6 0-1.21-0.23-2.25-0.71-3.09-0.44-0.84-1.01-1.56-1.71-2.16-0.69-0.62-1.45-1.16-2.27-1.64-0.79-0.47-1.54-0.95-2.24-1.45-0.69-0.52-1.28-1.09-1.75-1.71-0.44-0.64-0.67-1.43-0.67-2.35 0-1.41 0.51-2.5 1.53-3.24 1.04-0.74 2.38-1.11 4.03-1.11 1.29 0 2.42 0.12 3.39 0.37 0.99 0.24 1.74 0.5 2.24 0.78l1.49-2.65c-0.64-0.34-1.54-0.63-2.68-0.85s-2.43-0.33-3.88-0.33zm-183.41 0.44-5.56 26.13h2.83l3.73-17.58 0.29-3.88h0.15l0.55 3.58 4.29 11.79h0.89l8.96-11.79 2.08-3.58h0.15l-1.15 3.91-3.73 17.54h2.98l5.56-26.13h-2.65l-10.19 13.29-1.71 2.98h-0.03l-0.56-2.91-4.85-13.36zm46.11 0-5.52 26.13h2.8l1.75-8.4h2.01l4.21 8.4h3.09l-4.18-8.4-1.41-1.45 1.75-1.23 6.64-7.57h-3.43l-6.72 8.02-1.6 0.41 3.39-15.9zm108.43 0-5.52 26.13h2.98l2.53-12.09h1.9l6.57 12.09h3.39l-6.53-12.13-1.45-1.49 1.71-1.15 10.67-11.35h-3.69l-10.71 11.64-1.49 0.52 2.61-12.17zm98.01 0-1.64 7.76c-0.27-0.09-0.53-0.18-0.78-0.26-0.24-0.09-0.52-0.17-0.82-0.22-0.27-0.04-0.57-0.08-0.89-0.11-0.32-0.02-0.7-0.03-1.15-0.03-1.61 0-3.05 0.41-4.29 1.23-1.21 0.82-2.23 1.86-3.06 3.13-0.82 1.26-1.44 2.68-1.86 4.25-0.42 1.54-0.63 3.04-0.63 4.51 0 2.19 0.39 3.79 1.19 4.81 0.82 0.99 1.91 1.49 3.28 1.49 0.64 0 1.26-0.11 1.86-0.33 0.62-0.19 1.2-0.47 1.75-0.82 0.54-0.34 1.04-0.73 1.49-1.15 0.44-0.44 0.82-0.88 1.11-1.3h0.15l0.52 3.24h1.86c-0.02-0.22-0.04-0.44-0.07-0.67v-0.74c0-0.72 0.04-1.5 0.14-2.35 0.09-0.84 0.25-1.75 0.44-2.72l4.17-19.71zm18.26 0-5.52 26.13h4.85l2.35-11.16h1.75l5.03 11.16h5.41l-5.67-12.28-1.64-1.45 2.23-1.3 9.4-11.08h-5.82l-8.84 11.16-1.15 0.41 2.46-11.57zm26.04 6.94c-1.34 0-2.63 0.32-3.88 0.97-1.21 0.62-2.3 1.5-3.24 2.65-0.92 1.14-1.66 2.52-2.24 4.14-0.54 1.61-0.82 3.41-0.82 5.37 0 0.79 0.12 1.59 0.37 2.38 0.24 0.77 0.63 1.46 1.15 2.08 0.54 0.62 1.23 1.13 2.05 1.53 0.82 0.37 1.81 0.56 2.98 0.56 1.34 0 2.62-0.31 3.84-0.93 1.21-0.64 2.29-1.54 3.21-2.68s1.65-2.51 2.2-4.1c0.54-1.61 0.82-3.39 0.82-5.33 0-0.84-0.11-1.66-0.33-2.46-0.22-0.79-0.59-1.5-1.11-2.12-0.49-0.62-1.15-1.11-1.97-1.49-0.82-0.37-1.82-0.56-3.02-0.56zm-263.35 0.03c-1.91 0-3.55 0.42-4.92 1.26-1.34 0.84-2.45 1.92-3.32 3.24-0.84 1.31-1.48 2.8-1.9 4.44-0.39 1.64-0.59 3.26-0.59 4.85 0 3.85 1.48 5.78 4.44 5.78 0.67 0 1.3-0.11 1.9-0.33 0.59-0.19 1.15-0.47 1.67-0.82 0.52-0.34 0.99-0.73 1.41-1.15 0.44-0.44 0.82-0.88 1.12-1.3h0.14l0.52 3.24h2.08c-0.04-0.27-0.07-0.57-0.07-0.89v-1.08c0-0.82 0.03-1.7 0.11-2.65 0.07-0.94 0.21-1.87 0.41-2.79l2.35-10.9c-0.87-0.27-1.81-0.48-2.83-0.63-0.99-0.17-1.84-0.26-2.53-0.26zm33.98 0c-1.91 0-3.55 0.42-4.92 1.26-1.34 0.84-2.45 1.92-3.32 3.24-0.84 1.31-1.48 2.8-1.9 4.44-0.39 1.64-0.59 3.26-0.59 4.85 0 3.85 1.47 5.78 4.44 5.78 0.67 0 1.3-0.11 1.9-0.33 0.59-0.19 1.15-0.47 1.67-0.82 0.52-0.34 0.99-0.73 1.41-1.15 0.44-0.44 0.82-0.88 1.11-1.3h0.15l0.52 3.24h2.09c-0.04-0.27-0.07-0.57-0.07-0.89v-1.08c0-0.82 0.03-1.7 0.11-2.65 0.07-0.94 0.21-1.87 0.41-2.79l2.35-10.9c-0.87-0.27-1.81-0.48-2.83-0.63-0.99-0.17-1.84-0.26-2.53-0.26zm64.31 0c-1.91 0-3.55 0.42-4.92 1.26-1.34 0.84-2.45 1.92-3.32 3.24-0.84 1.31-1.48 2.8-1.9 4.44-0.39 1.64-0.59 3.26-0.59 4.85 0 3.85 1.47 5.78 4.44 5.78 0.67 0 1.3-0.11 1.9-0.33 0.59-0.19 1.15-0.47 1.67-0.82 0.52-0.34 0.99-0.73 1.41-1.15 0.44-0.44 0.82-0.88 1.11-1.3h0.15l0.52 3.24h2.09c-0.04-0.27-0.07-0.57-0.07-0.89v-1.08c0-0.82 0.03-1.7 0.11-2.65 0.07-0.94 0.21-1.87 0.41-2.79l2.35-10.9c-0.87-0.27-1.81-0.48-2.83-0.63-0.99-0.17-1.84-0.26-2.53-0.26zm78.53 0c-1.91 0-3.55 0.42-4.92 1.26-1.34 0.84-2.45 1.92-3.32 3.24-0.84 1.31-1.48 2.8-1.9 4.44-0.39 1.64-0.59 3.26-0.59 4.85 0 3.85 1.47 5.78 4.44 5.78 0.67 0 1.3-0.11 1.9-0.33 0.59-0.19 1.15-0.47 1.67-0.82 0.52-0.34 0.99-0.73 1.41-1.15 0.44-0.44 0.82-0.88 1.11-1.3h0.15l0.52 3.24h2.09c-0.04-0.27-0.07-0.57-0.07-0.89v-1.08c0-0.82 0.03-1.7 0.11-2.65 0.07-0.94 0.21-1.87 0.41-2.79l2.35-10.9c-0.87-0.27-1.81-0.48-2.83-0.63-0.99-0.17-1.84-0.26-2.53-0.26zm-113.29 0.03c-1.34 0-2.61 0.32-3.8 0.97-1.16 0.64-2.2 1.55-3.09 2.72s-1.6 2.57-2.12 4.21c-0.49 1.61-0.74 3.4-0.74 5.37 0 0.77 0.09 1.53 0.29 2.27 0.22 0.74 0.57 1.41 1.04 2.01 0.49 0.59 1.12 1.08 1.86 1.45 0.77 0.34 1.71 0.52 2.83 0.52 1.34 0 2.58-0.33 3.73-1 1.14-0.69 2.14-1.64 2.98-2.83 0.87-1.19 1.54-2.6 2.01-4.21 0.49-1.61 0.74-3.35 0.74-5.22 0-0.82-0.09-1.6-0.29-2.35-0.19-0.77-0.53-1.44-1-2.01-0.44-0.59-1.04-1.05-1.79-1.38-0.72-0.34-1.6-0.52-2.65-0.52zm133.13 0c-0.84 0-1.61 0.12-2.31 0.37-0.69 0.22-1.33 0.5-1.9 0.85-0.54 0.34-1.04 0.74-1.49 1.19-0.44 0.42-0.83 0.83-1.15 1.23h-0.15l0.15-3.21h-1.94l-3.95 18.66h2.79l2.46-11.94c0.29-0.54 0.65-1.09 1.08-1.64 0.44-0.57 0.94-1.08 1.49-1.52 0.54-0.47 1.13-0.85 1.75-1.15 0.62-0.29 1.25-0.44 1.9-0.44 0.92 0 1.54 0.22 1.86 0.67 0.34 0.44 0.52 1.03 0.52 1.75 0 0.34-0.03 0.74-0.11 1.19-0.07 0.42-0.16 0.85-0.26 1.3l-2.5 11.79h2.8l2.65-12.39c0.22-1.04 0.33-1.94 0.33-2.68 0-1.49-0.36-2.53-1.08-3.13s-1.7-0.89-2.94-0.89zm-144.41 0.18c-0.59 0-1.14 0.09-1.64 0.29-0.49 0.17-0.95 0.42-1.38 0.74-0.42 0.32-0.8 0.69-1.15 1.12-0.34 0.39-0.67 0.83-0.97 1.3h-0.14v-3.21h-1.94l-3.95 18.66h2.79l2.57-12.24c0.52-1.14 1.24-2.11 2.16-2.91 0.92-0.79 2.01-1.19 3.28-1.19 0.19 0 0.41 0.01 0.63 0.03 0.24 0.02 0.48 0.06 0.7 0.11l0.74-2.46c-0.59-0.17-1.16-0.26-1.71-0.26zm19.81 0.26 3.62 19.07h1.19l11.64-19.07h-3.21l-6.31 10.86-1.6 3.62h-0.07l-0.33-3.54-1.94-10.93zm-72.8 1.9c1.14 0 2.09 0.17 2.83 0.52l-2.09 10.08c-0.22 0.42-0.52 0.88-0.89 1.38-0.37 0.47-0.8 0.92-1.3 1.34-0.47 0.42-0.98 0.78-1.53 1.08-0.54 0.27-1.11 0.41-1.71 0.41-0.79 0-1.38-0.32-1.75-0.97-0.37-0.67-0.56-1.48-0.56-2.42 0-1.36 0.15-2.73 0.44-4.1s0.74-2.58 1.34-3.65c0.59-1.09 1.33-1.97 2.2-2.65 0.87-0.67 1.87-1 3.02-1zm33.97 0c1.14 0 2.09 0.17 2.83 0.52l-2.08 10.08c-0.22 0.42-0.52 0.88-0.89 1.38-0.37 0.47-0.8 0.92-1.3 1.34-0.47 0.42-0.98 0.78-1.53 1.08-0.54 0.27-1.11 0.41-1.71 0.41-0.79 0-1.38-0.32-1.75-0.97-0.37-0.67-0.56-1.48-0.56-2.42 0-1.36 0.14-2.73 0.44-4.1 0.29-1.36 0.74-2.58 1.34-3.65 0.59-1.09 1.33-1.97 2.2-2.65 0.87-0.67 1.87-1 3.02-1zm64.31 0c1.14 0 2.09 0.17 2.83 0.52l-2.08 10.08c-0.22 0.42-0.52 0.88-0.89 1.38-0.37 0.47-0.8 0.92-1.3 1.34-0.47 0.42-0.98 0.78-1.53 1.08-0.54 0.27-1.11 0.41-1.71 0.41-0.79 0-1.38-0.32-1.75-0.97-0.37-0.67-0.56-1.48-0.56-2.42 0-1.36 0.14-2.73 0.44-4.1 0.29-1.36 0.74-2.58 1.34-3.65 0.59-1.09 1.33-1.97 2.2-2.65 0.87-0.67 1.87-1 3.02-1zm78.53 0c1.14 0 2.09 0.17 2.83 0.52l-2.08 10.08c-0.22 0.42-0.52 0.88-0.89 1.38-0.37 0.47-0.8 0.92-1.3 1.34-0.47 0.42-0.98 0.78-1.53 1.08-0.54 0.27-1.11 0.41-1.71 0.41-0.79 0-1.38-0.32-1.75-0.97-0.37-0.67-0.56-1.48-0.56-2.42 0-1.36 0.14-2.73 0.44-4.1 0.29-1.36 0.74-2.58 1.34-3.65 0.59-1.09 1.33-1.97 2.2-2.65 0.87-0.67 1.87-1 3.02-1zm-113.11 0.03c1.29 0 2.16 0.37 2.61 1.11 0.47 0.72 0.7 1.71 0.7 2.98 0 1.39-0.17 2.73-0.52 4.03-0.32 1.26-0.77 2.4-1.34 3.39-0.54 0.99-1.19 1.79-1.94 2.39-0.72 0.57-1.49 0.85-2.31 0.85-1.19 0-2.06-0.38-2.61-1.15-0.54-0.79-0.82-1.93-0.82-3.39 0-1.34 0.16-2.62 0.48-3.84 0.34-1.24 0.8-2.33 1.38-3.28 0.59-0.94 1.26-1.69 2.01-2.24 0.74-0.57 1.53-0.85 2.35-0.85zm212.82 0.06c-0.36 0.33-0.71 0.69-1.04 1.09-0.92 1.14-1.66 2.52-2.23 4.14-0.54 1.61-0.82 3.41-0.82 5.37 0 0.79 0.12 1.59 0.37 2.38 0.24 0.77 0.63 1.46 1.15 2.08 0.54 0.62 1.23 1.13 2.05 1.53 0.82 0.37 1.81 0.56 2.98 0.56 1.34 0 2.62-0.31 3.84-0.93 0.25-0.13 0.49-0.28 0.73-0.43a243 243 0 0 0 -1.68 -3.83c-0.17 0.2-0.35 0.4-0.54 0.58-0.57 0.52-1.15 0.78-1.75 0.78-1.61 0-2.42-1.11-2.42-3.35 0-1.07 0.13-2.12 0.41-3.17 0.23-0.9 0.55-1.7 0.91-2.41a243 243 0 0 0 -1.96 -4.38zm-62.46 0.04c0.87 0 1.56 0.06 2.09 0.18 0.54 0.09 1.03 0.28 1.45 0.55l-2.08 9.7c-0.22 0.42-0.53 0.88-0.93 1.38-0.37 0.47-0.8 0.92-1.3 1.34-0.47 0.42-0.98 0.78-1.53 1.08-0.54 0.27-1.08 0.41-1.6 0.41-0.89 0-1.54-0.36-1.94-1.08-0.39-0.74-0.59-1.62-0.59-2.65 0-1.39 0.15-2.75 0.44-4.07 0.29-1.31 0.72-2.48 1.26-3.5 0.57-1.02 1.25-1.82 2.05-2.42 0.79-0.62 1.69-0.93 2.68-0.93zm49.35 1.26c0.92 0 1.54 0.27 1.86 0.82 0.34 0.52 0.52 1.28 0.52 2.27 0 1.07-0.13 2.13-0.41 3.2-0.24 1.07-0.59 2.02-1.04 2.87-0.44 0.84-0.95 1.53-1.52 2.05s-1.15 0.78-1.75 0.78c-1.61 0-2.42-1.11-2.42-3.35 0-1.07 0.13-2.12 0.41-3.17 0.27-1.04 0.63-1.96 1.08-2.76 0.44-0.82 0.95-1.48 1.52-1.97s1.15-0.74 1.75-0.74z"/>
  <path fill="#0d71ba" d="m204.36 251.85v2.76h8.13v23.37h3.09v-23.37h8.13v-2.76zm22.91 0v26.13h2.98v-12.43c0.27-1.19 0.88-2.16 1.82-2.91 0.94-0.77 2-1.15 3.17-1.15 0.82 0 1.48 0.12 1.97 0.37 0.52 0.24 0.93 0.62 1.23 1.12 0.29 0.47 0.49 1.08 0.59 1.83 0.12 0.72 0.18 1.56 0.18 2.53v10.64h2.98v-11.27c0-1.54-0.12-2.81-0.37-3.8-0.22-1.02-0.59-1.83-1.11-2.42-0.49-0.59-1.13-1-1.9-1.23-0.77-0.24-1.67-0.37-2.72-0.37-1.34 0-2.47 0.23-3.39 0.7-0.89 0.44-1.66 1.05-2.31 1.83h-0.14v-9.55zm64.95 0v22.4c0 1.51 0.37 2.61 1.12 3.28 0.74 0.64 1.82 0.97 3.24 0.97 0.87 0 1.71-0.09 2.53-0.29 0.82-0.19 1.42-0.39 1.82-0.59l-0.52-3.8c-0.42 0.17-0.78 0.28-1.08 0.33-0.27 0.04-0.55 0.07-0.85 0.07-0.49 0-0.85-0.19-1.08-0.59-0.22-0.39-0.33-1.03-0.33-1.9v-19.86zm121.55 0v7.57c-0.49-0.19-0.99-0.33-1.49-0.41-0.49-0.09-1.13-0.15-1.9-0.15-2.78 0-4.9 0.88-6.34 2.65-1.44 1.76-2.16 4.24-2.16 7.42 0 3.28 0.64 5.69 1.94 7.24 1.29 1.54 3.11 2.31 5.45 2.31 1.26 0 2.36-0.26 3.28-0.78 0.94-0.54 1.66-1.25 2.16-2.12h0.14l0.67 2.42h3.47c-0.19-1.26-0.31-2.42-0.33-3.47-0.02-1.04-0.03-2.08-0.03-3.13v-19.56zm90.63 0v22.4c0 1.51 0.37 2.61 1.12 3.28 0.74 0.64 1.82 0.97 3.24 0.97 0.87 0 1.71-0.09 2.53-0.29 0.82-0.19 1.42-0.39 1.82-0.59l-0.52-3.8c-0.42 0.17-0.78 0.28-1.08 0.33-0.27 0.04-0.55 0.07-0.85 0.07-0.49 0-0.85-0.19-1.08-0.59-0.22-0.39-0.33-1.03-0.33-1.9v-19.86zm-160.04 2.57-4.85 1.38v3.5h-2.57v4.1h2.57v9.4c0 2.01 0.39 3.47 1.19 4.36 0.82 0.87 2.08 1.3 3.8 1.3 0.92 0 1.83-0.11 2.72-0.33s1.67-0.49 2.35-0.82l-0.85-3.73c-0.44 0.19-0.85 0.34-1.23 0.44-0.34 0.09-0.77 0.14-1.26 0.14-0.72 0-1.22-0.27-1.49-0.82-0.24-0.57-0.37-1.5-0.37-2.8v-7.16h4.55v-4.1h-4.55zm-61.05 4.36c-2.71 0-4.77 0.85-6.19 2.57-1.41 1.69-2.12 4.11-2.12 7.27 0 1.46 0.13 2.81 0.41 4.03 0.29 1.21 0.77 2.26 1.41 3.13 0.64 0.84 1.48 1.5 2.5 1.97 1.04 0.47 2.31 0.71 3.8 0.71 1.12 0 2.2-0.15 3.24-0.44 1.07-0.27 1.97-0.68 2.72-1.23l-1.12-3.69c-0.44 0.29-0.95 0.56-1.53 0.78-0.57 0.19-1.26 0.29-2.08 0.29-0.74 0-1.4-0.13-1.97-0.41-0.54-0.29-0.99-0.69-1.34-1.19-0.34-0.49-0.61-1.08-0.78-1.75s-0.25-1.4-0.25-2.2c0-1.94 0.34-3.34 1.04-4.21 0.69-0.89 1.71-1.34 3.06-1.34 0.72 0 1.35 0.07 1.9 0.22 0.57 0.14 1.14 0.36 1.71 0.63l1.15-3.95c-0.67-0.34-1.43-0.63-2.27-0.85-0.82-0.22-1.91-0.33-3.28-0.33zm45.42 0c-2.06 0-3.64 0.48-4.74 1.45s-1.64 2.37-1.64 4.21c0 1.12 0.21 2.04 0.63 2.76 0.42 0.69 0.94 1.28 1.56 1.75 0.62 0.44 1.3 0.81 2.05 1.08 0.74 0.24 1.43 0.49 2.05 0.74 0.62 0.24 1.14 0.52 1.56 0.82 0.42 0.29 0.63 0.69 0.63 1.19 0 0.64-0.22 1.1-0.67 1.38-0.42 0.27-0.99 0.41-1.71 0.41-0.99 0-1.96-0.15-2.91-0.44-0.94-0.32-1.7-0.64-2.27-0.97l-1.34 3.62c0.72 0.44 1.65 0.83 2.8 1.15 1.16 0.34 2.41 0.52 3.73 0.52 2.41 0 4.21-0.53 5.41-1.6 1.21-1.09 1.83-2.58 1.83-4.48 0-1.09-0.21-1.99-0.63-2.68s-0.94-1.25-1.56-1.67c-0.62-0.44-1.3-0.81-2.05-1.08-0.74-0.27-1.43-0.52-2.05-0.74-0.62-0.24-1.14-0.51-1.56-0.78s-0.63-0.63-0.63-1.08c0-1.12 0.72-1.67 2.16-1.67 0.89 0 1.77 0.12 2.65 0.37 0.87 0.24 1.59 0.48 2.16 0.7l1.08-3.5c-0.64-0.37-1.54-0.71-2.68-1s-2.42-0.44-3.84-0.44zm31.04 0c-2.83 0-5.03 0.82-6.6 2.46-1.56 1.64-2.35 4.1-2.35 7.39 0 3.06 0.69 5.47 2.08 7.24 1.39 1.74 3.59 2.61 6.6 2.61 1.44 0 2.79-0.19 4.06-0.59 1.29-0.42 2.31-0.93 3.06-1.53l-1.6-3.17c-0.42 0.32-1.04 0.64-1.86 0.97-0.79 0.29-1.7 0.44-2.72 0.44-1.64 0-2.83-0.39-3.58-1.19-0.72-0.79-1.12-1.97-1.19-3.54h11.19c0.12-0.64 0.21-1.26 0.26-1.86 0.07-0.59 0.11-1.15 0.11-1.67 0-1.44-0.21-2.65-0.63-3.62s-0.98-1.74-1.67-2.31c-0.69-0.57-1.49-0.98-2.38-1.23s-1.81-0.37-2.76-0.37zm32.08 0c-2.83 0-5.03 0.82-6.6 2.46-1.56 1.64-2.35 4.1-2.35 7.39 0 3.06 0.69 5.47 2.08 7.24 1.39 1.74 3.59 2.61 6.6 2.61 1.44 0 2.8-0.19 4.07-0.59 1.29-0.42 2.31-0.93 3.06-1.53l-1.6-3.17c-0.42 0.32-1.04 0.64-1.86 0.97-0.79 0.29-1.7 0.44-2.72 0.44-1.64 0-2.83-0.39-3.58-1.19-0.72-0.79-1.11-1.97-1.19-3.54h11.19c0.12-0.64 0.21-1.26 0.26-1.86 0.07-0.59 0.11-1.15 0.11-1.67 0-1.44-0.21-2.65-0.63-3.62s-0.98-1.74-1.67-2.31-1.49-0.98-2.38-1.23-1.81-0.37-2.76-0.37zm61.68 0c-2.83 0-5.03 0.82-6.6 2.46-1.56 1.64-2.35 4.1-2.35 7.39 0 3.06 0.69 5.47 2.08 7.24 1.39 1.74 3.59 2.61 6.6 2.61 1.44 0 2.8-0.19 4.07-0.59 1.29-0.42 2.31-0.93 3.06-1.53l-1.6-3.17c-0.42 0.32-1.04 0.64-1.86 0.97-0.79 0.29-1.7 0.44-2.72 0.44-1.64 0-2.83-0.39-3.58-1.19-0.72-0.79-1.11-1.97-1.19-3.54h11.19c0.12-0.64 0.21-1.26 0.26-1.86 0.07-0.59 0.11-1.15 0.11-1.67 0-1.44-0.21-2.65-0.63-3.62s-0.98-1.74-1.67-2.31-1.49-0.98-2.38-1.23-1.81-0.37-2.76-0.37zm-198.7 0.07c-2.63 0-4.66 0.83-6.08 2.5-1.41 1.66-2.12 4.09-2.12 7.27 0 1.49 0.16 2.83 0.48 4.03 0.32 1.19 0.82 2.22 1.49 3.09 0.67 0.84 1.53 1.5 2.57 1.97 1.04 0.44 2.27 0.67 3.69 0.67 1.26 0 2.46-0.17 3.58-0.52 1.14-0.34 2.09-0.82 2.83-1.41l-1.12-2.16c-0.42 0.39-1.05 0.74-1.9 1.04-0.84 0.29-1.69 0.44-2.53 0.44-1.09 0-2.02-0.14-2.8-0.44-0.74-0.32-1.35-0.77-1.82-1.34-0.47-0.59-0.82-1.31-1.04-2.16-0.22-0.84-0.33-1.81-0.33-2.91h11.98c0.14-0.99 0.22-1.9 0.22-2.72 0-1.56-0.21-2.82-0.63-3.77-0.42-0.97-0.97-1.71-1.64-2.24-0.67-0.52-1.43-0.87-2.27-1.04-0.84-0.19-1.69-0.29-2.53-0.29zm217.81 0c-3.03 0-5.35 0.85-6.94 2.57-1.59 1.71-2.39 4.24-2.39 7.57 0 3.18 0.58 5.52 1.75 7.01 1.19 1.49 2.99 2.24 5.41 2.24 2.21 0 3.75-0.58 4.63-1.75h0.14v1.19c0 1.31-0.31 2.34-0.93 3.06-0.59 0.74-1.74 1.11-3.43 1.11-1.12 0-2.06-0.11-2.83-0.33-0.74-0.22-1.4-0.44-1.97-0.67l-1 3.84c0.52 0.27 1.29 0.53 2.31 0.78 1.04 0.24 2.46 0.37 4.25 0.37 2.63 0 4.69-0.64 6.16-1.94 1.46-1.26 2.2-3.25 2.2-5.97v-17.99c-0.79-0.29-1.83-0.56-3.09-0.78-1.24-0.22-2.66-0.33-4.25-0.33zm-93.25 0.03c-0.97 0-1.81 0.25-2.53 0.74s-1.29 1.2-1.71 2.12h-0.14l-0.56-2.46h-3.77v18.66h4.85v-12.05c0.19-0.72 0.58-1.3 1.15-1.75 0.59-0.47 1.33-0.71 2.2-0.71 0.62 0 1.31 0.13 2.08 0.41l0.63-4.55c-0.82-0.27-1.55-0.41-2.2-0.41zm61.68 0c-0.97 0-1.81 0.25-2.53 0.74s-1.29 1.2-1.71 2.12h-0.14l-0.56-2.46h-3.77v18.66h4.85v-12.05c0.19-0.72 0.58-1.3 1.15-1.75 0.59-0.47 1.33-0.71 2.2-0.71 0.62 0 1.31 0.13 2.08 0.41l0.63-4.55c-0.82-0.27-1.55-0.41-2.2-0.41zm81.89 0.03c-1.49 0-2.92 0.13-4.29 0.41-1.36 0.24-2.55 0.59-3.54 1.04l1.15 3.62c0.69-0.32 1.58-0.58 2.65-0.78 1.09-0.19 2.12-0.29 3.09-0.29 1.29 0 2.12 0.31 2.5 0.93 0.37 0.59 0.47 1.59 0.29 2.98-1.64-0.07-3.13-0.01-4.48 0.18-1.31 0.17-2.46 0.51-3.43 1-0.94 0.47-1.68 1.1-2.2 1.9-0.49 0.77-0.74 1.73-0.74 2.87 0 0.82 0.13 1.56 0.41 2.24 0.27 0.64 0.65 1.21 1.15 1.71 0.49 0.47 1.09 0.84 1.79 1.12 0.69 0.24 1.48 0.37 2.35 0.37 1.39 0 2.52-0.27 3.39-0.82 0.89-0.57 1.59-1.24 2.09-2.01h0.18l0.78 2.57h3.95c-0.29-0.89-0.48-1.84-0.56-2.83-0.07-1.02-0.11-2.06-0.11-3.13 0.02-1.07 0.07-2.15 0.14-3.24 0.07-1.12 0.11-2.22 0.11-3.32 0-0.99-0.11-1.89-0.33-2.68-0.19-0.79-0.56-1.48-1.08-2.05-0.49-0.57-1.18-1-2.05-1.3-0.87-0.32-1.95-0.48-3.24-0.48zm-220.1 0.37v11.6c0 1.46 0.12 2.68 0.37 3.66 0.27 0.97 0.65 1.74 1.15 2.31 0.49 0.57 1.12 0.98 1.86 1.23s1.59 0.37 2.53 0.37c1.39 0 2.6-0.31 3.62-0.93s1.81-1.4 2.38-2.35h0.15l0.85 2.76h3.65c-0.19-0.79-0.34-1.67-0.44-2.65-0.09-0.99-0.14-2-0.14-3.02v-12.99h-4.85v12.05c-0.29 0.79-0.75 1.46-1.38 2.01-0.59 0.54-1.35 0.82-2.27 0.82-1.04 0-1.75-0.33-2.12-1-0.34-0.67-0.52-1.76-0.52-3.28v-10.6zm181.12 0v11.6c0 1.46 0.12 2.68 0.37 3.66 0.27 0.97 0.65 1.74 1.15 2.31 0.49 0.57 1.12 0.98 1.86 1.23s1.59 0.37 2.53 0.37c1.39 0 2.6-0.31 3.62-0.93s1.81-1.4 2.38-2.35h0.15l0.85 2.76h3.65c-0.19-0.79-0.34-1.67-0.44-2.65-0.09-0.99-0.14-2-0.14-3.02v-12.99h-4.85v12.05c-0.29 0.79-0.75 1.46-1.38 2.01-0.59 0.54-1.35 0.82-2.27 0.82-1.04 0-1.75-0.33-2.12-1-0.34-0.67-0.52-1.76-0.52-3.28v-10.6zm49.77 0v18.66h4.85v-7.56a243 243 0 0 0 -1.49 -11.1zm-278.9 2.16c1.31 0 2.34 0.38 3.06 1.15 0.72 0.74 1.08 2.06 1.08 3.95h-9.25c0.17-1.86 0.69-3.18 1.56-3.95 0.89-0.77 2.07-1.15 3.54-1.15zm104.82 1.19c1.09 0 1.89 0.36 2.39 1.08 0.52 0.72 0.73 1.75 0.63 3.09h-6.94c0.12-1.26 0.48-2.27 1.08-3.02 0.62-0.77 1.56-1.15 2.83-1.15zm32.08 0c1.09 0 1.89 0.36 2.38 1.08 0.52 0.72 0.73 1.75 0.63 3.09h-6.94c0.12-1.26 0.48-2.27 1.08-3.02 0.62-0.77 1.56-1.15 2.83-1.15zm61.68 0c1.09 0 1.89 0.36 2.38 1.08 0.52 0.72 0.73 1.75 0.63 3.09h-6.94c0.12-1.26 0.48-2.27 1.08-3.02 0.62-0.77 1.56-1.15 2.83-1.15zm-42.5 0.29c0.67 0 1.21 0.07 1.64 0.22 0.42 0.12 0.8 0.32 1.15 0.59v7.91c-0.22 0.87-0.61 1.54-1.15 2.01-0.54 0.44-1.29 0.67-2.24 0.67-1.21 0-2.11-0.48-2.68-1.45-0.54-0.97-0.82-2.25-0.82-3.84 0-2.24 0.33-3.82 1-4.74 0.69-0.92 1.72-1.38 3.09-1.38zm61.32 0c1.14 0 2.1 0.16 2.87 0.48v8.4c-0.27 0.84-0.67 1.48-1.19 1.9-0.49 0.42-1.22 0.63-2.16 0.63-1.12 0-1.97-0.47-2.57-1.41-0.59-0.94-0.89-2.32-0.89-4.14 0-2.04 0.34-3.52 1.04-4.44 0.69-0.94 1.66-1.41 2.91-1.41zm51.47 6.76c0.37 0.006 0.75 0.02 1.13 0.06v2.42c-0.27 0.49-0.69 0.97-1.26 1.41-0.57 0.42-1.34 0.63-2.31 0.63-0.72 0-1.29-0.18-1.71-0.56-0.39-0.39-0.59-0.94-0.59-1.64 0-0.49 0.16-0.9 0.48-1.23s0.75-0.57 1.3-0.74c0.54-0.17 1.17-0.28 1.86-0.33 0.36-0.02 0.72-0.03 1.1-0.02zm-296.44 31.58c-1.39 0-2.78 0.23-4.17 0.7-1.39 0.44-2.66 1.2-3.8 2.27-1.12 1.04-2.04 2.43-2.76 4.18-0.69 1.71-1.04 3.85-1.04 6.42 0 2.46 0.31 4.56 0.93 6.3 0.64 1.71 1.5 3.12 2.57 4.21 1.07 1.07 2.3 1.85 3.69 2.35 1.41 0.47 2.91 0.71 4.48 0.71 1.29 0 2.55-0.12 3.77-0.37 1.24-0.24 2.26-0.65 3.06-1.23l-1.04-4.18c-0.57 0.34-1.24 0.63-2.01 0.85s-1.71 0.33-2.83 0.33c-1.19 0-2.25-0.21-3.17-0.63-0.89-0.44-1.65-1.05-2.27-1.83-0.59-0.79-1.04-1.74-1.34-2.83-0.29-1.12-0.44-2.35-0.44-3.69 0-3.08 0.62-5.36 1.86-6.83 1.26-1.46 2.93-2.2 5-2.2 1.12 0 2.06 0.06 2.83 0.18 0.79 0.12 1.48 0.32 2.05 0.59l1-4.33c-0.67-0.27-1.53-0.5-2.57-0.7-1.02-0.19-2.27-0.29-3.77-0.29zm51.15 0c-1.31 0-2.51 0.15-3.58 0.44s-2 0.75-2.79 1.38c-0.77 0.62-1.36 1.4-1.79 2.35-0.42 0.92-0.63 2.01-0.63 3.28 0 1.46 0.28 2.67 0.85 3.62 0.59 0.94 1.33 1.74 2.2 2.39 0.89 0.62 1.85 1.15 2.87 1.6 1.04 0.42 2 0.84 2.87 1.26 0.89 0.39 1.63 0.84 2.2 1.34 0.59 0.49 0.89 1.14 0.89 1.94 0 1.04-0.41 1.83-1.23 2.35-0.79 0.49-1.95 0.74-3.47 0.74-0.64 0-1.28-0.04-1.9-0.14-0.59-0.09-1.17-0.22-1.71-0.37-0.54-0.14-1.04-0.31-1.49-0.48-0.42-0.17-0.77-0.33-1.04-0.48l-1.64 4.36c0.67 0.34 1.71 0.69 3.13 1.04 1.41 0.34 3.06 0.52 4.92 0.52 1.41 0 2.71-0.16 3.88-0.48 1.19-0.32 2.2-0.82 3.02-1.49 0.84-0.67 1.49-1.5 1.94-2.5 0.47-1.02 0.7-2.22 0.7-3.62 0-1.39-0.29-2.55-0.89-3.47-0.57-0.94-1.3-1.72-2.2-2.35-0.87-0.64-1.82-1.19-2.87-1.64-1.02-0.44-1.97-0.88-2.87-1.3-0.87-0.42-1.6-0.88-2.2-1.38-0.57-0.49-0.85-1.12-0.85-1.86 0-0.79 0.31-1.43 0.93-1.9 0.64-0.47 1.56-0.7 2.76-0.7 1.26 0 2.45 0.14 3.54 0.44 1.09 0.27 1.91 0.58 2.46 0.93l1.6-4.29c-0.87-0.49-1.97-0.87-3.32-1.12-1.34-0.27-2.77-0.41-4.29-0.41zm165.55 0c-1.39 0-2.78 0.23-4.18 0.7-1.39 0.44-2.66 1.2-3.8 2.27-1.12 1.04-2.04 2.43-2.76 4.18-0.69 1.71-1.04 3.85-1.04 6.42 0 2.46 0.31 4.56 0.93 6.3 0.64 1.71 1.5 3.12 2.57 4.21 1.07 1.07 2.3 1.85 3.69 2.35 1.41 0.47 2.91 0.71 4.48 0.71 1.29 0 2.55-0.12 3.76-0.37 1.24-0.24 2.26-0.65 3.06-1.23l-1.04-4.18c-0.57 0.34-1.24 0.63-2.01 0.85s-1.71 0.33-2.83 0.33c-1.19 0-2.25-0.21-3.17-0.63-0.89-0.44-1.65-1.05-2.27-1.83-0.59-0.79-1.04-1.74-1.34-2.83-0.29-1.12-0.44-2.35-0.44-3.69 0-3.08 0.62-5.36 1.86-6.83 1.26-1.46 2.93-2.2 5-2.2 1.12 0 2.06 0.06 2.83 0.18 0.79 0.12 1.48 0.32 2.05 0.59l1-4.33c-0.67-0.27-1.53-0.5-2.57-0.7-1.02-0.19-2.27-0.29-3.77-0.29zm51.15 0c-1.31 0-2.51 0.15-3.58 0.44s-2 0.75-2.79 1.38c-0.77 0.62-1.36 1.4-1.79 2.35-0.42 0.92-0.63 2.01-0.63 3.28 0 1.46 0.28 2.67 0.85 3.62 0.59 0.94 1.33 1.74 2.2 2.39 0.89 0.62 1.85 1.15 2.87 1.6 1.04 0.42 2 0.84 2.87 1.26 0.89 0.39 1.63 0.84 2.2 1.34 0.59 0.49 0.89 1.14 0.89 1.94 0 1.04-0.41 1.83-1.23 2.35-0.79 0.49-1.95 0.74-3.47 0.74-0.64 0-1.28-0.04-1.9-0.14-0.59-0.09-1.16-0.22-1.71-0.37-0.54-0.14-1.04-0.31-1.49-0.48-0.42-0.17-0.77-0.33-1.04-0.48l-1.64 4.36c0.67 0.34 1.71 0.69 3.13 1.04 1.41 0.34 3.06 0.52 4.92 0.52 1.41 0 2.71-0.16 3.88-0.48 1.19-0.32 2.2-0.82 3.02-1.49 0.84-0.67 1.49-1.5 1.94-2.5 0.47-1.02 0.7-2.22 0.7-3.62 0-1.39-0.29-2.55-0.89-3.47-0.57-0.94-1.3-1.72-2.2-2.35-0.87-0.64-1.82-1.19-2.87-1.64-1.02-0.44-1.97-0.88-2.87-1.3-0.87-0.42-1.6-0.88-2.2-1.38-0.57-0.49-0.85-1.12-0.85-1.86 0-0.79 0.31-1.43 0.93-1.9 0.64-0.47 1.56-0.7 2.76-0.7 1.26 0 2.45 0.14 3.54 0.44 1.09 0.27 1.91 0.58 2.46 0.93l1.6-4.29c-0.87-0.49-1.98-0.87-3.32-1.12-1.34-0.27-2.77-0.41-4.29-0.41zm-282.92 0.07c-1.16 1.26-2.16 2.63-2.98 4.1-0.79 1.46-1.44 2.97-1.94 4.51-0.49 1.51-0.85 3.03-1.08 4.55-0.22 1.51-0.33 2.96-0.33 4.33 0 1.39 0.11 2.86 0.33 4.4 0.22 1.51 0.57 3.03 1.04 4.55 0.49 1.49 1.14 2.94 1.94 4.36 0.79 1.44 1.76 2.76 2.91 3.95l1.9-1.38c-0.92-1.09-1.71-2.31-2.38-3.65-0.64-1.34-1.18-2.71-1.6-4.1-0.39-1.41-0.69-2.82-0.89-4.21-0.17-1.41-0.26-2.72-0.26-3.91 0-1.26 0.07-2.58 0.22-3.95 0.17-1.39 0.46-2.78 0.85-4.18 0.39-1.39 0.91-2.76 1.56-4.1 0.67-1.36 1.5-2.68 2.5-3.95zm121.36 0-1.9 1.38c0.92 1.09 1.7 2.31 2.35 3.65 0.64 1.34 1.16 2.72 1.56 4.14 0.42 1.41 0.73 2.82 0.93 4.21 0.19 1.39 0.29 2.68 0.29 3.88 0 1.26-0.08 2.59-0.26 3.95-0.14 1.36-0.42 2.74-0.82 4.14-0.37 1.39-0.89 2.77-1.56 4.14s-1.5 2.68-2.5 3.95l1.79 1.3c1.16-1.26 2.15-2.63 2.94-4.1 0.82-1.46 1.48-2.96 1.97-4.48 0.49-1.54 0.85-3.07 1.08-4.59s0.33-2.96 0.33-4.33c0-1.39-0.11-2.84-0.33-4.36-0.22-1.54-0.58-3.06-1.08-4.55-0.47-1.51-1.1-2.98-1.9-4.4-0.79-1.44-1.76-2.76-2.91-3.95zm35.3 0c-1.39 0-2.76 0.25-4.1 0.74s-2.56 1.29-3.65 2.38c-1.07 1.07-1.94 2.46-2.61 4.18-0.64 1.69-0.97 3.75-0.97 6.19 0 2.33 0.29 4.36 0.89 6.08 0.59 1.69 1.4 3.08 2.42 4.17s2.21 1.91 3.58 2.46c1.36 0.52 2.83 0.78 4.4 0.78 1.29 0 2.51-0.11 3.66-0.33 1.14-0.22 2.08-0.62 2.83-1.19l-0.74-2.42c-0.57 0.34-1.28 0.63-2.12 0.85-0.82 0.22-1.79 0.33-2.91 0.33-1.24 0-2.4-0.22-3.47-0.67-1.04-0.44-1.96-1.11-2.76-2.01-0.77-0.89-1.38-2.01-1.82-3.36s-0.67-2.91-0.67-4.7c0-1.99 0.23-3.67 0.7-5.04s1.09-2.47 1.86-3.32c0.79-0.84 1.69-1.45 2.68-1.82s2-0.56 3.02-0.56c2.21 0 3.92 0.28 5.11 0.85l0.74-2.72c-0.67-0.27-1.48-0.48-2.42-0.63-0.94-0.17-2.16-0.26-3.66-0.26zm60.04 0c-1.16 1.26-2.16 2.63-2.98 4.1-0.79 1.46-1.44 2.97-1.94 4.51-0.49 1.51-0.85 3.03-1.08 4.55-0.22 1.51-0.33 2.96-0.33 4.33 0 1.39 0.11 2.86 0.33 4.4 0.22 1.51 0.57 3.03 1.04 4.55 0.49 1.49 1.14 2.94 1.94 4.36 0.79 1.44 1.76 2.76 2.91 3.95l1.9-1.38c-0.92-1.09-1.71-2.31-2.39-3.65-0.64-1.34-1.18-2.71-1.6-4.1-0.39-1.41-0.69-2.82-0.89-4.21-0.17-1.41-0.26-2.72-0.26-3.91 0-1.26 0.07-2.58 0.22-3.95 0.17-1.39 0.45-2.78 0.85-4.18 0.39-1.39 0.92-2.76 1.56-4.1 0.67-1.36 1.5-2.68 2.5-3.95zm-184.31 0.07c-0.52 0-1.09 0.01-1.71 0.03s-1.26 0.06-1.94 0.11c-0.64 0.04-1.3 0.12-1.97 0.22-0.64 0.07-1.25 0.16-1.83 0.26v25.87h5.11v-10.71l2.68 0.48 5.93 10.22h5.89l-5.97-9.96-1.83-1.15c1.66-0.52 3-1.45 3.99-2.8s1.49-3.08 1.49-5.22c0-1.44-0.28-2.63-0.85-3.58-0.54-0.97-1.29-1.72-2.24-2.27-0.92-0.54-1.97-0.93-3.17-1.15-1.16-0.22-2.36-0.33-3.58-0.33zm52.6 0c-1.24 0-2.5 0.06-3.77 0.18-1.24 0.09-2.38 0.25-3.43 0.44v25.87h5.11v-8.99c0.12 0.02 0.32 0.05 0.59 0.07 0.29 0.02 0.59 0.04 0.89 0.07h1.45c1.29 0 2.53-0.16 3.73-0.48 1.21-0.32 2.3-0.84 3.24-1.56s1.7-1.64 2.27-2.76c0.57-1.14 0.85-2.53 0.85-4.18 0-1.81-0.33-3.28-1-4.4-0.64-1.14-1.49-2.02-2.53-2.65-1.04-0.64-2.22-1.07-3.54-1.26-1.29-0.22-2.58-0.33-3.88-0.33zm21.62 0c-0.52 0-1.09 0.01-1.71 0.03s-1.26 0.06-1.94 0.11c-0.64 0.04-1.3 0.12-1.97 0.22-0.64 0.07-1.25 0.16-1.83 0.26v25.87h5.11v-10.71l2.68 0.48 5.93 10.22h5.89l-5.97-9.96-1.82-1.15c1.66-0.52 2.99-1.45 3.99-2.8 0.99-1.34 1.49-3.08 1.49-5.22 0-1.44-0.28-2.63-0.85-3.58-0.54-0.97-1.29-1.72-2.24-2.27-0.92-0.54-1.97-0.93-3.17-1.15-1.16-0.22-2.36-0.33-3.58-0.33zm142.48 0c-0.52 0-1.09 0.01-1.71 0.03s-1.26 0.06-1.94 0.11c-0.64 0.04-1.3 0.12-1.97 0.22-0.64 0.07-1.25 0.16-1.82 0.26v25.87h5.11v-10.71l2.68 0.48 5.93 10.22h5.89l-5.97-9.96-1.83-1.15c1.66-0.52 2.99-1.45 3.99-2.8s1.49-3.08 1.49-5.22c0-1.44-0.28-2.63-0.85-3.58-0.54-0.97-1.29-1.72-2.24-2.27-0.92-0.54-1.97-0.93-3.17-1.15-1.16-0.22-2.36-0.33-3.58-0.33zm52.6 0c-1.24 0-2.5 0.06-3.77 0.18-1.24 0.09-2.39 0.25-3.43 0.44v25.87h5.11v-8.99c0.12 0.02 0.32 0.05 0.59 0.07 0.29 0.02 0.59 0.04 0.89 0.07h1.45c1.29 0 2.53-0.16 3.73-0.48 1.21-0.32 2.3-0.84 3.24-1.56s1.7-1.64 2.27-2.76c0.57-1.14 0.85-2.53 0.85-4.18 0-1.81-0.33-3.28-1-4.4-0.64-1.14-1.49-2.02-2.53-2.65-1.04-0.64-2.22-1.07-3.54-1.26-1.29-0.22-2.58-0.33-3.88-0.33zm21.62 0c-0.52 0-1.09 0.01-1.71 0.03s-1.26 0.06-1.94 0.11c-0.64 0.04-1.3 0.12-1.97 0.22-0.64 0.07-1.25 0.16-1.83 0.26v25.87h5.11v-10.71l2.68 0.48 3.92 6.76a243 243 0 0 0 0.37 -7.49l-0.27-0.17c0.1-0.03 0.18-0.07 0.28-0.11a243 243 0 0 0 0.72 -14.43c-0.55-0.21-1.15-0.38-1.79-0.5-1.16-0.22-2.36-0.33-3.58-0.33zm-275.42 0.37v26.13h5.11v-26.13zm216.71 0v26.13h5.11v-26.13zm-179.21 4.03c0.64 0 1.28 0.06 1.9 0.18s1.16 0.34 1.64 0.67c0.49 0.32 0.89 0.75 1.19 1.3 0.29 0.52 0.44 1.19 0.44 2.01 0 0.97-0.16 1.75-0.48 2.35-0.29 0.59-0.7 1.07-1.23 1.41-0.52 0.32-1.12 0.54-1.79 0.67-0.64 0.12-1.3 0.18-1.97 0.18h-1.11c-0.22-0.02-0.43-0.04-0.63-0.07-0.19-0.02-0.34-0.04-0.44-0.07v-8.47c0.27-0.04 0.63-0.08 1.08-0.11 0.44-0.04 0.92-0.07 1.41-0.07zm216.71 0c0.64 0 1.28 0.06 1.9 0.18s1.16 0.34 1.64 0.67c0.49 0.32 0.89 0.75 1.19 1.3 0.29 0.52 0.44 1.19 0.44 2.01 0 0.97-0.16 1.75-0.48 2.35-0.29 0.59-0.7 1.07-1.23 1.41-0.52 0.32-1.11 0.54-1.79 0.67-0.64 0.12-1.3 0.18-1.97 0.18h-1.12c-0.22-0.02-0.43-0.04-0.63-0.07-0.19-0.02-0.34-0.04-0.44-0.07v-8.47c0.27-0.04 0.63-0.08 1.08-0.11 0.44-0.04 0.92-0.07 1.41-0.07zm-269.35 0.15c1.34 0 2.36 0.32 3.06 0.97 0.69 0.62 1.04 1.49 1.04 2.61 0 1.49-0.42 2.56-1.26 3.2s-1.97 0.97-3.39 0.97h-2.16v-7.57c0.27-0.07 0.65-0.12 1.15-0.14 0.52-0.02 1.04-0.03 1.56-0.03zm74.22 0c1.34 0 2.36 0.32 3.06 0.97 0.69 0.62 1.04 1.49 1.04 2.61 0 1.49-0.42 2.56-1.26 3.2s-1.97 0.97-3.39 0.97h-2.16v-7.57c0.27-0.07 0.66-0.12 1.15-0.14 0.52-0.02 1.04-0.03 1.56-0.03zm142.48 0c1.34 0 2.36 0.32 3.06 0.97 0.69 0.62 1.04 1.49 1.04 2.61-0.00001 1.49-0.42 2.56-1.26 3.2s-1.97 0.97-3.39 0.97h-2.16v-7.57c0.27-0.07 0.66-0.12 1.15-0.14 0.52-0.02 1.04-0.03 1.56-0.03zm74.22 0c1.34 0 2.36 0.32 3.06 0.97 0.69 0.62 1.04 1.49 1.04 2.61 0 1.49-0.42 2.56-1.26 3.2s-1.97 0.97-3.39 0.97h-2.16v-7.57c0.27-0.07 0.65-0.12 1.15-0.14 0.52-0.02 1.04-0.03 1.56-0.03zm-133.45 2.83c-1.81 0-3.23 0.42-4.25 1.26-1.02 0.82-1.52 2.12-1.52 3.91 0 1.09 0.22 1.96 0.67 2.61 0.44 0.64 0.99 1.18 1.64 1.6 0.67 0.39 1.39 0.73 2.16 1 0.79 0.24 1.51 0.52 2.16 0.82 0.67 0.27 1.23 0.62 1.67 1.04s0.67 1 0.67 1.75c0 1.09-0.34 1.85-1.04 2.27-0.69 0.42-1.58 0.63-2.65 0.63-0.94 0-1.87-0.13-2.8-0.41-0.92-0.27-1.66-0.57-2.24-0.89l-0.89 2.53c0.67 0.37 1.5 0.69 2.5 0.97 0.99 0.27 2.2 0.41 3.62 0.41 1.09 0 2.04-0.14 2.83-0.44 0.82-0.27 1.5-0.66 2.05-1.15 0.54-0.49 0.94-1.09 1.19-1.79 0.27-0.69 0.41-1.44 0.41-2.24 0-1.12-0.22-2.01-0.67-2.68-0.44-0.69-1-1.26-1.67-1.71-0.64-0.44-1.36-0.81-2.16-1.08-0.77-0.27-1.49-0.54-2.16-0.82-0.64-0.29-1.19-0.62-1.64-0.97-0.44-0.37-0.67-0.88-0.67-1.53 0-0.92 0.24-1.56 0.74-1.94 0.52-0.37 1.33-0.56 2.42-0.56 0.92 0 1.77 0.11 2.57 0.33 0.82 0.19 1.51 0.43 2.09 0.71l0.7-2.46c-0.67-0.32-1.46-0.59-2.38-0.82-0.89-0.24-2.01-0.37-3.36-0.37zm-16.57 0.15c-1.36 0-2.68 0.13-3.95 0.41-1.24 0.27-2.33 0.69-3.28 1.26l0.93 2.24c0.34-0.19 0.74-0.37 1.19-0.52 0.47-0.17 0.95-0.31 1.45-0.41 0.52-0.12 1.02-0.21 1.49-0.26 0.49-0.07 0.95-0.11 1.38-0.11 1.44 0 2.43 0.27 2.98 0.82 0.54 0.54 0.82 1.5 0.82 2.87 0 0.59-0.03 1.26-0.11 2.01-0.34-0.04-0.69-0.07-1.04-0.07h-1c-1.36 0-2.62 0.09-3.76 0.29-1.12 0.17-2.09 0.48-2.91 0.93-0.79 0.42-1.41 1-1.86 1.75-0.44 0.72-0.67 1.63-0.67 2.72 0 0.82 0.13 1.55 0.41 2.2 0.29 0.64 0.69 1.2 1.19 1.68 0.49 0.44 1.08 0.79 1.75 1.04 0.69 0.24 1.44 0.37 2.24 0.37 0.79 0 1.5-0.08 2.12-0.26 0.62-0.17 1.16-0.38 1.64-0.63 0.47-0.27 0.86-0.57 1.19-0.89 0.34-0.34 0.63-0.69 0.85-1.04h0.18l0.78 2.61h2.2c-0.19-0.69-0.33-1.45-0.41-2.27-0.07-0.82-0.11-1.69-0.11-2.61 0-1.26 0.03-2.61 0.11-4.03 0.07-1.41 0.11-2.87 0.11-4.36 0-0.67-0.07-1.34-0.22-2.01-0.12-0.67-0.39-1.28-0.82-1.82-0.39-0.57-0.99-1.03-1.79-1.38-0.77-0.34-1.8-0.52-3.09-0.52zm-41.66 6.83v2.76h9.03v-2.76zm42.45 3.69c0.34 0 0.69 0.01 1.04 0.03 0.37 0 0.73 0.01 1.08 0.03v3.09c-0.12 0.32-0.32 0.65-0.59 1-0.24 0.34-0.57 0.67-0.97 0.97-0.39 0.27-0.87 0.5-1.41 0.7-0.54 0.17-1.16 0.26-1.86 0.26-0.97 0-1.76-0.27-2.39-0.82-0.62-0.57-0.93-1.29-0.93-2.16 0-0.62 0.16-1.13 0.48-1.53 0.34-0.42 0.79-0.74 1.34-0.97 0.57-0.24 1.21-0.4 1.94-0.48 0.74-0.09 1.5-0.15 2.27-0.15zm-169.83 31.78c-1.39 0-2.78 0.23-4.18 0.7-1.39 0.44-2.66 1.2-3.8 2.27-1.12 1.04-2.03 2.43-2.76 4.18-0.69 1.71-1.04 3.85-1.04 6.42 0 2.46 0.3 4.56 0.93 6.3 0.64 1.71 1.5 3.12 2.57 4.21 1.07 1.07 2.3 1.85 3.69 2.35 1.41 0.47 2.91 0.71 4.47 0.71 1.29 0 2.55-0.12 3.77-0.37 1.24-0.24 2.26-0.65 3.06-1.23l-1.04-4.18c-0.57 0.34-1.24 0.63-2.01 0.85s-1.71 0.33-2.83 0.33c-1.19 0-2.25-0.21-3.17-0.63-0.89-0.44-1.65-1.05-2.27-1.83-0.59-0.79-1.04-1.74-1.34-2.83-0.29-1.12-0.44-2.35-0.44-3.69 0-3.08 0.62-5.36 1.86-6.83 1.26-1.46 2.93-2.2 5-2.2 1.12 0 2.06 0.06 2.83 0.18 0.79 0.12 1.48 0.32 2.05 0.59l1-4.33c-0.67-0.27-1.53-0.5-2.57-0.7-1.02-0.19-2.27-0.29-3.76-0.29zm51.15 0c-1.31 0-2.51 0.15-3.58 0.44s-2 0.75-2.8 1.38c-0.77 0.62-1.36 1.4-1.79 2.35-0.42 0.92-0.63 2.01-0.63 3.28 0 1.46 0.28 2.67 0.85 3.62 0.59 0.94 1.33 1.74 2.2 2.39 0.89 0.62 1.85 1.15 2.87 1.6 1.04 0.42 2 0.84 2.87 1.26 0.89 0.39 1.63 0.84 2.2 1.34 0.59 0.49 0.89 1.14 0.89 1.94 0 1.04-0.4 1.83-1.23 2.35-0.79 0.49-1.95 0.74-3.47 0.74-0.64 0-1.28-0.04-1.9-0.14-0.59-0.09-1.16-0.22-1.71-0.37-0.54-0.14-1.04-0.31-1.49-0.48-0.42-0.17-0.77-0.33-1.04-0.48l-1.64 4.36c0.67 0.34 1.71 0.69 3.13 1.04 1.41 0.34 3.06 0.52 4.92 0.52 1.41 0 2.71-0.16 3.88-0.48 1.19-0.32 2.2-0.82 3.02-1.49 0.84-0.67 1.49-1.5 1.94-2.5 0.47-1.02 0.7-2.22 0.7-3.62 0-1.39-0.29-2.55-0.89-3.47-0.57-0.94-1.3-1.72-2.2-2.35-0.87-0.64-1.82-1.19-2.87-1.64-1.02-0.44-1.97-0.88-2.87-1.3-0.87-0.42-1.6-0.88-2.2-1.38-0.57-0.49-0.85-1.12-0.85-1.86 0-0.79 0.31-1.43 0.93-1.9 0.64-0.47 1.56-0.7 2.76-0.7 1.26 0 2.45 0.14 3.54 0.44 1.09 0.27 1.91 0.58 2.46 0.93l1.6-4.29c-0.87-0.49-1.97-0.87-3.32-1.12-1.34-0.27-2.77-0.41-4.29-0.41zm80.02 0.07c-1.39 0-2.76 0.25-4.1 0.74s-2.56 1.29-3.65 2.38c-1.07 1.07-1.94 2.46-2.61 4.18-0.64 1.69-0.97 3.75-0.97 6.19 0 2.33 0.29 4.36 0.89 6.08 0.59 1.69 1.4 3.08 2.42 4.17s2.21 1.91 3.58 2.46c1.36 0.52 2.83 0.78 4.4 0.78 1.29 0 2.51-0.11 3.65-0.33s2.09-0.62 2.83-1.19l-0.74-2.42c-0.57 0.34-1.28 0.63-2.12 0.85-0.82 0.22-1.79 0.33-2.91 0.33-1.24 0-2.4-0.22-3.47-0.67-1.04-0.44-1.96-1.11-2.76-2.01-0.77-0.89-1.38-2.01-1.83-3.36s-0.67-2.91-0.67-4.7c0-1.99 0.23-3.67 0.71-5.04s1.09-2.47 1.86-3.32c0.79-0.84 1.69-1.45 2.68-1.82s2-0.56 3.02-0.56c2.21 0 3.92 0.28 5.11 0.85l0.74-2.72c-0.67-0.27-1.48-0.48-2.42-0.63-0.94-0.17-2.16-0.26-3.65-0.26zm-113.84 0.07c-0.52 0-1.09 0.01-1.71 0.03s-1.26 0.06-1.94 0.11c-0.64 0.04-1.3 0.12-1.97 0.22-0.64 0.07-1.25 0.16-1.83 0.26v25.87h5.11v-10.71l2.68 0.48 5.93 10.22h5.89l-5.97-9.96-1.82-1.15c1.66-0.52 2.99-1.45 3.99-2.8 0.99-1.34 1.49-3.08 1.49-5.22 0-1.44-0.28-2.63-0.85-3.58-0.54-0.97-1.29-1.72-2.24-2.27-0.92-0.54-1.97-0.93-3.17-1.15-1.16-0.22-2.36-0.33-3.58-0.33zm52.6 0c-1.24 0-2.5 0.06-3.76 0.18-1.24 0.09-2.39 0.25-3.43 0.44v25.87h5.11v-8.99c0.12 0.02 0.32 0.05 0.59 0.07 0.29 0.02 0.59 0.04 0.89 0.07h1.45c1.29 0 2.53-0.16 3.73-0.48 1.21-0.32 2.3-0.84 3.24-1.56s1.7-1.64 2.27-2.76c0.57-1.14 0.85-2.53 0.85-4.18 0-1.81-0.33-3.28-1-4.4-0.64-1.14-1.49-2.02-2.53-2.65-1.04-0.64-2.22-1.07-3.54-1.26-1.29-0.22-2.58-0.33-3.88-0.33zm21.62 0c-0.52 0-1.09 0.01-1.71 0.03s-1.26 0.06-1.94 0.11c-0.64 0.04-1.3 0.12-1.97 0.22-0.64 0.07-1.25 0.16-1.82 0.26v25.87h5.11v-10.71l2.68 0.48 5.93 10.22h5.89l-5.97-9.96-1.83-1.15c1.66-0.52 2.99-1.45 3.99-2.8s1.49-3.08 1.49-5.22c0-1.44-0.28-2.63-0.85-3.58-0.54-0.97-1.29-1.72-2.24-2.27-0.92-0.54-1.97-0.93-3.17-1.15-1.16-0.22-2.36-0.33-3.58-0.33zm205.73 0.07c-0.59 0-1.09 0.21-1.49 0.63-0.37 0.39-0.56 0.88-0.56 1.45s0.18 1.04 0.56 1.41c0.39 0.37 0.89 0.55 1.49 0.55 0.59 0 1.1-0.18 1.53-0.55 0.42-0.37 0.63-0.84 0.63-1.41s-0.21-1.05-0.63-1.45c-0.42-0.42-0.93-0.63-1.53-0.63zm-264.45 0.29v26.13h5.11v-26.13zm37.49 4.03c0.64 0 1.28 0.06 1.9 0.18s1.16 0.34 1.64 0.67c0.49 0.32 0.89 0.75 1.19 1.3 0.29 0.52 0.44 1.19 0.44 2.01 0 0.97-0.16 1.75-0.48 2.35-0.29 0.59-0.7 1.07-1.23 1.41-0.52 0.32-1.11 0.54-1.79 0.67-0.64 0.12-1.3 0.18-1.97 0.18h-1.12c-0.22-0.02-0.43-0.04-0.63-0.07-0.19-0.02-0.34-0.04-0.44-0.07v-8.47c0.27-0.04 0.63-0.08 1.08-0.11 0.44-0.04 0.92-0.07 1.41-0.07zm-52.64 0.15c1.34 0 2.36 0.32 3.06 0.97 0.69 0.62 1.04 1.49 1.04 2.61 0 1.49-0.42 2.56-1.26 3.2s-1.97 0.97-3.39 0.97h-2.16v-7.57c0.27-0.07 0.66-0.12 1.15-0.14 0.52-0.02 1.04-0.03 1.56-0.03zm74.23 0c1.34 0 2.36 0.32 3.06 0.97 0.69 0.62 1.04 1.49 1.04 2.61 0 1.49-0.42 2.56-1.26 3.2s-1.97 0.97-3.39 0.97h-2.16v-7.57c0.27-0.07 0.66-0.12 1.15-0.14 0.52-0.02 1.04-0.03 1.56-0.03zm72.82 2.83c-1.81 0-3.23 0.42-4.25 1.26-1.02 0.82-1.53 2.12-1.53 3.91 0 1.09 0.22 1.96 0.67 2.61 0.44 0.64 0.99 1.18 1.64 1.6 0.67 0.39 1.39 0.73 2.16 1 0.79 0.24 1.51 0.52 2.16 0.82 0.67 0.27 1.23 0.62 1.67 1.04s0.67 1 0.67 1.75c0 1.09-0.34 1.85-1.04 2.27-0.69 0.42-1.58 0.63-2.65 0.63-0.94 0-1.87-0.13-2.8-0.41-0.92-0.27-1.66-0.57-2.24-0.89l-0.89 2.53c0.67 0.37 1.5 0.69 2.5 0.97 0.99 0.27 2.2 0.41 3.62 0.41 1.09 0 2.04-0.14 2.83-0.44 0.82-0.27 1.5-0.66 2.05-1.15s0.94-1.09 1.19-1.79c0.27-0.69 0.41-1.44 0.41-2.24 0-1.12-0.22-2.01-0.67-2.68-0.44-0.69-1-1.26-1.67-1.71-0.64-0.44-1.36-0.81-2.16-1.08-0.77-0.27-1.49-0.54-2.16-0.82-0.64-0.29-1.19-0.62-1.64-0.97-0.44-0.37-0.67-0.88-0.67-1.53 0-0.92 0.25-1.56 0.74-1.94 0.52-0.37 1.33-0.56 2.42-0.56 0.92 0 1.77 0.11 2.57 0.33 0.82 0.19 1.51 0.43 2.09 0.71l0.7-2.46c-0.67-0.32-1.46-0.59-2.39-0.82-0.89-0.24-2.01-0.37-3.35-0.37zm47.95 0c-2.63 0-4.66 0.83-6.08 2.5-1.41 1.66-2.12 4.09-2.12 7.27 0 1.49 0.16 2.83 0.48 4.03s0.82 2.22 1.49 3.09c0.67 0.84 1.53 1.5 2.57 1.97 1.04 0.44 2.27 0.67 3.69 0.67 1.26 0 2.46-0.17 3.58-0.52 1.14-0.34 2.09-0.82 2.83-1.41l-1.12-2.16c-0.42 0.39-1.05 0.74-1.9 1.04s-1.69 0.44-2.53 0.44c-1.09 0-2.02-0.14-2.8-0.44-0.74-0.32-1.35-0.77-1.82-1.34-0.47-0.59-0.82-1.31-1.04-2.16-0.22-0.84-0.33-1.81-0.33-2.91h11.98c0.14-0.99 0.22-1.9 0.22-2.72 0-1.56-0.21-2.82-0.63-3.77-0.42-0.97-0.97-1.71-1.64-2.24-0.67-0.52-1.43-0.87-2.27-1.04-0.84-0.19-1.69-0.29-2.53-0.29zm20.6 0c-1.39 0-2.6 0.26-3.62 0.78-0.99 0.49-1.79 1.14-2.39 1.94h-0.14l-0.56-2.27h-2.08v18.66h2.98v-12.76c0.34-1.07 0.94-1.95 1.79-2.65 0.87-0.72 1.96-1.08 3.28-1.08 1.49 0 2.51 0.49 3.06 1.49 0.57 0.97 0.85 2.42 0.85 4.36v10.64h2.98v-11.27c0-1.54-0.13-2.81-0.41-3.8-0.24-1.02-0.63-1.83-1.15-2.42-0.49-0.59-1.13-1-1.9-1.23-0.77-0.24-1.66-0.37-2.68-0.37zm18.73 0c-2.63 0-4.66 0.84-6.08 2.53-1.39 1.66-2.08 4.08-2.08 7.24 0 1.46 0.16 2.81 0.48 4.03 0.32 1.19 0.82 2.22 1.49 3.09 0.67 0.84 1.51 1.5 2.53 1.97 1.04 0.44 2.26 0.67 3.65 0.67 2.63 0 4.65-0.83 6.04-2.5 1.41-1.69 2.12-4.12 2.12-7.28 0-1.46-0.16-2.79-0.48-3.99-0.32-1.21-0.82-2.25-1.49-3.09-0.67-0.87-1.53-1.53-2.57-1.98-1.02-0.47-2.22-0.7-3.62-0.7zm21.43 0c-1.41 0-2.57 0.26-3.47 0.78-0.87 0.49-1.64 1.14-2.31 1.94h-0.15l-0.55-2.27h-2.09v18.66h2.98v-12.84c0.29-1.04 0.82-1.91 1.56-2.61 0.77-0.69 1.73-1.04 2.87-1.04 0.74 0 1.34 0.12 1.79 0.37 0.47 0.24 0.83 0.62 1.08 1.12 0.24 0.49 0.4 1.12 0.48 1.86 0.09 0.72 0.15 1.58 0.15 2.57v10.56h2.98v-12.46c0.29-1.29 0.79-2.28 1.49-2.98 0.69-0.69 1.66-1.04 2.91-1.04 0.74 0 1.34 0.11 1.79 0.33 0.47 0.19 0.83 0.52 1.08 0.97 0.27 0.42 0.44 0.97 0.52 1.64 0.09 0.64 0.15 1.41 0.15 2.31v11.23h2.98v-11.19c0-1.56-0.11-2.86-0.33-3.88-0.19-1.02-0.53-1.83-1-2.42s-1.07-1-1.79-1.23c-0.72-0.24-1.6-0.37-2.65-0.37-1.26 0-2.41 0.27-3.43 0.82-0.99 0.54-1.77 1.3-2.35 2.27-0.42-1.14-1.01-1.94-1.79-2.39-0.74-0.47-1.71-0.7-2.91-0.7zm38.79 0c-2.61 0-4.61 0.84-6 2.53-1.39 1.66-2.09 4.08-2.09 7.24 0 1.46 0.13 2.81 0.41 4.03 0.29 1.19 0.75 2.22 1.38 3.09 0.64 0.84 1.46 1.5 2.46 1.97 0.86 0.38 1.91 0.59 3.11 0.65a243 243 0 0 0 0.95 -2.6c-0.89-0.03-1.67-0.22-2.31-0.57-0.69-0.39-1.26-0.92-1.71-1.56-0.42-0.67-0.73-1.43-0.93-2.27-0.17-0.87-0.26-1.78-0.26-2.72 0-4.77 1.76-7.16 5.3-7.16 0.79 0 1.54 0.09 2.24 0.29 0.48 0.12 0.93 0.29 1.35 0.48a243 243 0 0 0 0.67 -2.62c-0.48-0.19-0.98-0.35-1.54-0.47-0.82-0.19-1.83-0.29-3.02-0.29zm-118.83 0.11c-2.96 0-5.2 0.83-6.72 2.5-1.51 1.64-2.27 4.05-2.27 7.24 0 3.31 0.58 5.74 1.75 7.31 1.19 1.56 3.04 2.35 5.56 2.35 1.24 0 2.25-0.18 3.02-0.55 0.77-0.39 1.4-0.95 1.9-1.68h0.14v1.79c0 0.94-0.07 1.75-0.22 2.42-0.14 0.69-0.42 1.25-0.82 1.68-0.39 0.44-0.93 0.75-1.6 0.93-0.64 0.19-1.49 0.29-2.53 0.29-1.12 0-2.02-0.09-2.72-0.29-0.69-0.19-1.33-0.41-1.9-0.63l-0.78 2.53c0.64 0.29 1.41 0.53 2.31 0.7 0.92 0.19 2.12 0.29 3.62 0.29 2.51 0 4.4-0.57 5.67-1.71 1.29-1.14 1.94-2.92 1.94-5.33v-18.74c-0.79-0.29-1.7-0.55-2.72-0.78-0.99-0.22-2.2-0.33-3.62-0.33zm-45.27 0.03c-1.36 0-2.68 0.13-3.95 0.41-1.24 0.27-2.33 0.69-3.28 1.26l0.93 2.24c0.34-0.19 0.74-0.37 1.19-0.52 0.47-0.17 0.95-0.31 1.45-0.41 0.52-0.12 1.02-0.21 1.49-0.26 0.49-0.07 0.95-0.11 1.38-0.11 1.44 0 2.43 0.27 2.98 0.82s0.82 1.5 0.82 2.87c0 0.59-0.03 1.26-0.11 2.01-0.34-0.04-0.69-0.07-1.04-0.07h-1c-1.36 0-2.62 0.09-3.77 0.29-1.12 0.17-2.09 0.48-2.91 0.93-0.79 0.42-1.41 1-1.86 1.75-0.44 0.72-0.67 1.63-0.67 2.72 0 0.82 0.13 1.55 0.41 2.2 0.29 0.64 0.69 1.2 1.19 1.68 0.49 0.44 1.08 0.79 1.75 1.04 0.69 0.24 1.44 0.37 2.24 0.37 0.79 0 1.5-0.08 2.12-0.26 0.62-0.17 1.16-0.38 1.64-0.63 0.47-0.27 0.87-0.57 1.19-0.89 0.34-0.34 0.63-0.69 0.85-1.04h0.18l0.78 2.61h2.2c-0.19-0.69-0.33-1.45-0.41-2.27-0.07-0.82-0.11-1.69-0.11-2.61 0-1.26 0.03-2.61 0.11-4.03 0.07-1.41 0.11-2.87 0.11-4.36 0-0.67-0.07-1.34-0.22-2.01-0.12-0.67-0.39-1.28-0.82-1.82-0.39-0.57-0.99-1.03-1.79-1.38-0.77-0.34-1.8-0.52-3.09-0.52zm147.69 0.29v18.66h2.98v-18.66zm-83.11 2.16c1.31 0 2.34 0.38 3.06 1.15 0.72 0.74 1.08 2.06 1.08 3.95h-9.25c0.17-1.86 0.69-3.18 1.56-3.95 0.89-0.77 2.07-1.15 3.54-1.15zm39.3 0c0.92 0 1.7 0.19 2.35 0.59 0.64 0.37 1.17 0.88 1.56 1.53 0.39 0.64 0.68 1.4 0.85 2.27 0.19 0.87 0.29 1.79 0.29 2.76 0 4.8-1.69 7.19-5.07 7.16-0.92 0-1.7-0.19-2.35-0.59s-1.17-0.92-1.56-1.56-0.69-1.4-0.89-2.27c-0.17-0.87-0.26-1.78-0.26-2.72 0-4.8 1.69-7.19 5.07-7.16zm-59.05 0.11c1.54 0 2.81 0.23 3.8 0.7v9.55c-0.29 1.34-0.8 2.33-1.53 2.98-0.72 0.62-1.71 0.93-2.98 0.93-0.87 0-1.6-0.17-2.2-0.52-0.59-0.34-1.08-0.83-1.45-1.45s-0.64-1.36-0.82-2.24c-0.17-0.87-0.25-1.82-0.25-2.87 0-2.43 0.48-4.23 1.45-5.37s2.3-1.71 3.99-1.71zm-86.48 4.25v2.76h9.03v-2.76zm42.45 3.69c0.34 0 0.69 0.01 1.04 0.03 0.37 0 0.73 0.01 1.08 0.03v3.09c-0.12 0.32-0.32 0.65-0.59 1-0.24 0.34-0.57 0.67-0.97 0.97-0.39 0.27-0.87 0.5-1.41 0.7-0.54 0.17-1.17 0.26-1.86 0.26-0.97 0-1.76-0.27-2.38-0.82-0.62-0.57-0.93-1.29-0.93-2.16 0-0.62 0.16-1.13 0.48-1.53 0.34-0.42 0.79-0.74 1.34-0.97 0.57-0.24 1.21-0.4 1.94-0.48 0.74-0.09 1.5-0.15 2.27-0.15zm-1.24 31.85c-1.39 0-2.76 0.25-4.1 0.74s-2.56 1.29-3.65 2.38c-1.07 1.07-1.94 2.46-2.61 4.18-0.64 1.69-0.97 3.75-0.97 6.19 0 2.33 0.29 4.36 0.89 6.08 0.59 1.69 1.4 3.08 2.42 4.17s2.21 1.91 3.58 2.46c1.36 0.52 2.83 0.78 4.4 0.78 1.29 0 2.51-0.11 3.65-0.33s2.09-0.62 2.83-1.19l-0.74-2.42c-0.57 0.34-1.28 0.63-2.12 0.85-0.82 0.22-1.79 0.33-2.91 0.33-1.24 0-2.4-0.22-3.47-0.67-1.04-0.44-1.96-1.11-2.76-2.01-0.77-0.89-1.38-2.01-1.83-3.36s-0.67-2.91-0.67-4.7c0-1.99 0.23-3.67 0.7-5.04 0.47-1.36 1.09-2.47 1.86-3.32 0.79-0.84 1.69-1.45 2.68-1.82s2-0.56 3.02-0.56c2.21 0 3.92 0.28 5.11 0.85l0.74-2.72c-0.67-0.27-1.48-0.48-2.42-0.63-0.94-0.17-2.16-0.26-3.65-0.26zm-135.97 0.15c-0.59 0-1.09 0.21-1.49 0.63-0.37 0.39-0.55 0.88-0.55 1.45s0.18 1.04 0.55 1.41c0.39 0.37 0.89 0.55 1.49 0.55 0.59 0 1.1-0.18 1.53-0.55 0.42-0.37 0.63-0.84 0.63-1.41s-0.21-1.05-0.63-1.45c-0.42-0.42-0.93-0.63-1.53-0.63zm74.95 0c-0.59 0-1.09 0.21-1.49 0.63-0.37 0.39-0.56 0.88-0.56 1.45s0.18 1.04 0.56 1.41c0.39 0.37 0.89 0.55 1.49 0.55 0.59 0 1.1-0.18 1.52-0.55s0.63-0.84 0.63-1.41-0.21-1.05-0.63-1.45c-0.42-0.42-0.93-0.63-1.52-0.63zm134.75 0c-0.59 0-1.09 0.21-1.49 0.63-0.37 0.39-0.56 0.88-0.56 1.45s0.18 1.04 0.56 1.41c0.39 0.37 0.89 0.55 1.49 0.55 0.59 0 1.1-0.18 1.52-0.55s0.63-0.84 0.63-1.41-0.21-1.05-0.63-1.45c-0.42-0.42-0.93-0.63-1.52-0.63zm78.16 0c-0.59 0-1.09 0.21-1.49 0.63-0.37 0.39-0.55 0.88-0.55 1.45s0.18 1.04 0.55 1.41c0.39 0.37 0.89 0.55 1.49 0.55 0.39 0 0.73-0.08 1.05-0.24a243 243 0 0 0 1.05 -2.18c-0.08-0.37-0.27-0.71-0.58-0.99-0.42-0.42-0.93-0.63-1.53-0.63zm-62.53 0.03c-2.24 0-3.94 0.53-5.11 1.6-1.14 1.04-1.71 2.73-1.71 5.07v1.04h-2.91v2.61h2.91v16.05h2.98v-16.05h7.54v16.05h2.98v-18.66h-10.52c0-0.82 0.03-1.55 0.11-2.2 0.09-0.64 0.28-1.18 0.56-1.6 0.29-0.44 0.7-0.77 1.23-0.97 0.54-0.22 1.28-0.33 2.2-0.33 1.04 0 2.02 0.09 2.94 0.29 0.92 0.19 1.71 0.51 2.39 0.93l1-2.39c-0.64-0.39-1.54-0.73-2.68-1-1.14-0.29-2.45-0.44-3.91-0.44zm-236.09 0.26v7.76c-0.62-0.22-1.2-0.38-1.75-0.48-0.52-0.09-1.24-0.14-2.16-0.14-2.63 0-4.71 0.83-6.23 2.5-1.49 1.64-2.24 4.05-2.24 7.24 0 3.33 0.59 5.78 1.79 7.35 1.21 1.56 3.07 2.35 5.56 2.35 1.26 0 2.37-0.28 3.32-0.85 0.94-0.57 1.66-1.29 2.16-2.16h0.15l0.74 2.65h2.01c-0.19-0.99-0.31-2-0.33-3.02-0.02-1.04-0.03-2.2-0.03-3.47v-19.71zm157.79 0v22.4c0 1.51 0.36 2.59 1.08 3.24 0.72 0.62 1.64 0.93 2.76 0.93 0.52 0 1.13-0.06 1.82-0.18 0.72-0.12 1.28-0.28 1.67-0.48l-0.33-2.35c-0.47 0.17-0.89 0.28-1.26 0.33-0.37 0.04-0.72 0.07-1.04 0.07-0.54 0-0.97-0.18-1.26-0.55s-0.44-0.99-0.44-1.86v-21.54zm-60.7 2.91-2.98 0.85v3.69h-2.91v2.61h2.91v10.9c0 2.01 0.31 3.45 0.93 4.33 0.62 0.84 1.69 1.26 3.21 1.26 0.92 0 1.77-0.09 2.57-0.29 0.79-0.19 1.53-0.45 2.2-0.78l-0.67-2.27c-0.54 0.22-1.04 0.41-1.49 0.56-0.44 0.12-0.99 0.18-1.64 0.18-0.77 0-1.31-0.26-1.64-0.78-0.32-0.54-0.48-1.46-0.48-2.76v-10.34h5.07v-2.61h-5.07zm190.24 0-2.98 0.85v3.69h-2.91v2.61h2.91v10.9c0 2.01 0.31 3.45 0.93 4.33 0.44 0.6 1.13 0.99 2.05 1.16a243 243 0 0 0 1.57 -2.56c-0.48-0.1-0.84-0.34-1.08-0.72-0.32-0.54-0.48-1.46-0.48-2.76v-10.34h5.07v-2.61h-5.07zm-243.89 4.1c-2.63 0-4.66 0.83-6.08 2.5s-2.12 4.09-2.12 7.27c0 1.49 0.16 2.83 0.48 4.03s0.82 2.22 1.49 3.09c0.67 0.84 1.52 1.5 2.57 1.97 1.04 0.44 2.27 0.67 3.69 0.67 1.26 0 2.46-0.17 3.58-0.52 1.14-0.34 2.09-0.82 2.83-1.41l-1.12-2.16c-0.42 0.39-1.05 0.74-1.9 1.04-0.84 0.29-1.69 0.44-2.53 0.44-1.09 0-2.02-0.14-2.79-0.44-0.74-0.32-1.35-0.77-1.83-1.34-0.47-0.59-0.82-1.31-1.04-2.16-0.22-0.84-0.33-1.81-0.33-2.91h11.98c0.14-0.99 0.22-1.9 0.22-2.72 0-1.56-0.2-2.82-0.63-3.77-0.42-0.97-0.97-1.71-1.64-2.24-0.67-0.52-1.43-0.87-2.27-1.04-0.84-0.19-1.69-0.29-2.53-0.29zm29.48 0c-1.81 0-3.23 0.42-4.25 1.26-1.02 0.82-1.53 2.12-1.53 3.91 0 1.09 0.22 1.96 0.67 2.61 0.44 0.64 0.99 1.18 1.64 1.6 0.67 0.39 1.39 0.73 2.16 1 0.79 0.24 1.51 0.52 2.16 0.82 0.67 0.27 1.23 0.62 1.67 1.04s0.67 1 0.67 1.75c0 1.09-0.34 1.85-1.04 2.27s-1.58 0.63-2.65 0.63c-0.94 0-1.87-0.13-2.79-0.41-0.92-0.27-1.66-0.57-2.24-0.89l-0.89 2.53c0.67 0.37 1.5 0.69 2.5 0.97 0.99 0.27 2.2 0.41 3.62 0.41 1.09 0 2.03-0.14 2.83-0.44 0.82-0.27 1.5-0.66 2.05-1.15 0.54-0.49 0.94-1.09 1.19-1.79 0.27-0.69 0.41-1.44 0.41-2.24 0-1.12-0.22-2.01-0.67-2.68-0.44-0.69-1-1.26-1.67-1.71-0.64-0.44-1.36-0.81-2.16-1.08-0.77-0.27-1.49-0.54-2.16-0.82-0.64-0.29-1.19-0.62-1.64-0.97-0.44-0.37-0.67-0.88-0.67-1.53 0-0.92 0.24-1.56 0.74-1.94 0.52-0.37 1.33-0.56 2.42-0.56 0.92 0 1.77 0.11 2.57 0.33 0.82 0.19 1.51 0.43 2.08 0.71l0.7-2.46c-0.67-0.32-1.46-0.59-2.38-0.82-0.89-0.24-2.01-0.37-3.35-0.37zm119 0c-1.81 0-3.23 0.42-4.25 1.26-1.02 0.82-1.53 2.12-1.53 3.91 0 1.09 0.22 1.96 0.67 2.61 0.44 0.64 0.99 1.18 1.64 1.6 0.67 0.39 1.39 0.73 2.16 1 0.79 0.24 1.51 0.52 2.16 0.82 0.67 0.27 1.23 0.62 1.67 1.04s0.67 1 0.67 1.75c0 1.09-0.34 1.85-1.04 2.27s-1.58 0.63-2.65 0.63c-0.94 0-1.87-0.13-2.79-0.41-0.92-0.27-1.66-0.57-2.24-0.89l-0.89 2.53c0.67 0.37 1.5 0.69 2.5 0.97 0.99 0.27 2.2 0.41 3.62 0.41 1.09 0 2.03-0.14 2.83-0.44 0.82-0.27 1.5-0.66 2.05-1.15 0.54-0.49 0.94-1.09 1.19-1.79 0.27-0.69 0.41-1.44 0.41-2.24 0-1.12-0.22-2.01-0.67-2.68-0.44-0.69-1-1.26-1.68-1.71-0.64-0.44-1.36-0.81-2.16-1.08-0.77-0.27-1.49-0.54-2.16-0.82-0.64-0.29-1.19-0.62-1.64-0.97-0.44-0.37-0.67-0.88-0.67-1.53 0-0.92 0.24-1.56 0.74-1.94 0.52-0.37 1.33-0.56 2.42-0.56 0.92 0 1.77 0.11 2.57 0.33 0.82 0.19 1.51 0.43 2.08 0.71l0.7-2.46c-0.67-0.32-1.46-0.59-2.38-0.82-0.89-0.24-2.01-0.37-3.35-0.37zm15.75 0c-1.81 0-3.23 0.42-4.25 1.26-1.02 0.82-1.53 2.12-1.53 3.91 0 1.09 0.22 1.96 0.67 2.61 0.44 0.64 0.99 1.18 1.64 1.6 0.67 0.39 1.39 0.73 2.16 1 0.79 0.24 1.51 0.52 2.16 0.82 0.67 0.27 1.23 0.62 1.67 1.04s0.67 1 0.67 1.75c0 1.09-0.34 1.85-1.04 2.27s-1.58 0.63-2.65 0.63c-0.94 0-1.87-0.13-2.79-0.41-0.92-0.27-1.66-0.57-2.24-0.89l-0.89 2.53c0.67 0.37 1.5 0.69 2.5 0.97 0.99 0.27 2.2 0.41 3.62 0.41 1.09 0 2.03-0.14 2.83-0.44 0.82-0.27 1.5-0.66 2.05-1.15 0.54-0.49 0.94-1.09 1.19-1.79 0.27-0.69 0.41-1.44 0.41-2.24 0-1.12-0.22-2.01-0.67-2.68-0.44-0.69-1-1.26-1.68-1.71-0.64-0.44-1.36-0.81-2.16-1.08-0.77-0.27-1.49-0.54-2.16-0.82-0.64-0.29-1.19-0.62-1.64-0.97-0.44-0.37-0.67-0.88-0.67-1.53 0-0.92 0.24-1.56 0.74-1.94 0.52-0.37 1.33-0.56 2.42-0.56 0.92 0 1.77 0.11 2.57 0.33 0.82 0.19 1.51 0.43 2.08 0.71l0.7-2.46c-0.67-0.32-1.46-0.59-2.38-0.82-0.89-0.24-2.01-0.37-3.35-0.37zm47.91 0c-2.61 0-4.61 0.84-6.01 2.53-1.39 1.66-2.08 4.08-2.08 7.24 0 1.46 0.13 2.81 0.41 4.03 0.29 1.19 0.75 2.22 1.38 3.09 0.64 0.84 1.46 1.5 2.46 1.97 0.99 0.44 2.21 0.67 3.65 0.67 1.12 0 2.19-0.14 3.21-0.44 1.02-0.27 1.9-0.68 2.65-1.23l-0.97-2.27c-0.44 0.34-1.03 0.65-1.75 0.93-0.69 0.27-1.49 0.41-2.39 0.41-1.04 0-1.92-0.19-2.65-0.59-0.69-0.39-1.26-0.92-1.71-1.56-0.42-0.67-0.73-1.43-0.93-2.27-0.17-0.87-0.26-1.78-0.26-2.72 0-4.77 1.76-7.16 5.3-7.16 0.79 0 1.54 0.09 2.23 0.29 0.69 0.17 1.33 0.42 1.9 0.74l0.85-2.57c-0.67-0.34-1.43-0.61-2.27-0.78-0.82-0.19-1.82-0.29-3.02-0.29zm-193.34 0.07c-1.02 0-1.86 0.23-2.53 0.7-0.64 0.44-1.2 1.09-1.67 1.94h-0.15l-0.55-2.27h-2.09v18.66h2.98v-13.06c0.14-0.89 0.53-1.63 1.15-2.2 0.62-0.59 1.46-0.89 2.53-0.89 0.67 0 1.38 0.12 2.12 0.37l0.63-2.87c-0.89-0.24-1.7-0.37-2.42-0.37zm113.09 0.07c-1.36 0-2.68 0.13-3.95 0.41-1.24 0.27-2.33 0.69-3.28 1.26l0.93 2.24c0.34-0.19 0.74-0.37 1.19-0.52 0.47-0.17 0.95-0.31 1.45-0.41 0.52-0.12 1.01-0.21 1.49-0.26 0.49-0.07 0.95-0.11 1.38-0.11 1.44 0 2.43 0.27 2.98 0.82 0.54 0.54 0.82 1.5 0.82 2.87 0.00001 0.59-0.03 1.26-0.11 2.01-0.34-0.04-0.69-0.07-1.04-0.07h-1c-1.36 0-2.62 0.09-3.77 0.29-1.12 0.17-2.09 0.48-2.91 0.93-0.79 0.42-1.41 1-1.86 1.75-0.44 0.72-0.67 1.63-0.67 2.72 0 0.82 0.13 1.55 0.41 2.2 0.29 0.64 0.69 1.2 1.19 1.68 0.49 0.44 1.08 0.79 1.75 1.04 0.69 0.24 1.44 0.37 2.24 0.37s1.5-0.08 2.12-0.26c0.62-0.17 1.16-0.38 1.64-0.63 0.47-0.27 0.87-0.57 1.19-0.89 0.34-0.34 0.63-0.69 0.85-1.04h0.18l0.78 2.61h2.2c-0.19-0.69-0.33-1.45-0.41-2.27-0.07-0.82-0.11-1.69-0.11-2.61 0-1.26 0.03-2.61 0.11-4.03 0.07-1.41 0.11-2.87 0.11-4.36 0-0.67-0.07-1.34-0.22-2.01-0.12-0.67-0.39-1.28-0.82-1.82-0.39-0.57-0.99-1.03-1.79-1.38-0.77-0.34-1.8-0.52-3.09-0.52zm96.97 0c-1.36 0-2.68 0.13-3.95 0.41-1.24 0.27-2.33 0.69-3.28 1.26l0.93 2.24c0.34-0.19 0.74-0.37 1.19-0.52 0.47-0.17 0.95-0.31 1.45-0.41 0.52-0.12 1.02-0.21 1.49-0.26 0.49-0.07 0.95-0.11 1.38-0.11 1.44 0 2.43 0.27 2.98 0.82s0.82 1.5 0.82 2.87c0 0.59-0.03 1.26-0.11 2.01-0.34-0.04-0.69-0.07-1.04-0.07h-1c-1.36 0-2.62 0.09-3.77 0.29-1.12 0.17-2.09 0.48-2.91 0.93-0.79 0.42-1.41 1-1.86 1.75-0.44 0.72-0.67 1.63-0.67 2.72 0 0.82 0.13 1.55 0.41 2.2 0.29 0.64 0.69 1.2 1.19 1.68 0.49 0.44 1.08 0.79 1.75 1.04 0.69 0.24 1.44 0.37 2.24 0.37 0.79 0 1.5-0.08 2.12-0.26 0.62-0.17 1.16-0.38 1.64-0.63 0.47-0.27 0.87-0.57 1.19-0.89 0.34-0.34 0.63-0.69 0.85-1.04h0.18l0.78 2.61h2.2c-0.19-0.69-0.33-1.45-0.41-2.27-0.07-0.82-0.11-1.69-0.11-2.61 0-1.26 0.03-2.61 0.11-4.03 0.07-1.41 0.11-2.87 0.11-4.36 0-0.67-0.07-1.34-0.22-2.01-0.12-0.67-0.39-1.28-0.82-1.82-0.39-0.57-0.99-1.03-1.79-1.38-0.77-0.34-1.8-0.52-3.09-0.52zm-262.97 0.29v18.66h2.98v-18.66zm6.81 0 8.09 19.07h1.26l7.95-19.07h-3.21l-4.18 10.86-0.93 3.62h-0.03l-1.04-3.54-4.48-10.93zm68.14 0v18.66h2.98v-18.66zm19.61 0 7.5 18.66c-0.42 1.79-0.95 3.04-1.6 3.77-0.64 0.74-1.32 1.11-2.01 1.11-0.29 0-0.6-0.06-0.93-0.18l-0.52 2.57c0.57 0.24 1.3 0.37 2.2 0.37 0.82 0 1.54-0.27 2.16-0.82 0.62-0.52 1.18-1.23 1.68-2.12s0.94-1.91 1.34-3.06c0.42-1.14 0.84-2.32 1.26-3.54l5.52-16.76h-3.02l-3.62 12.05-0.82 3.62h-0.18l-1.04-3.58-4.48-12.09zm115.13 0v18.66h2.98v-18.66zm78.16 0v1.17a243 243 0 0 0 0.56 -1.17zm-253.74 2.16c1.31 0 2.33 0.38 3.06 1.15 0.72 0.74 1.08 2.06 1.08 3.95h-9.25c0.17-1.86 0.69-3.18 1.56-3.95 0.89-0.77 2.07-1.15 3.54-1.15zm-47.27 0.11c0.94 0 1.7 0.07 2.27 0.22 0.57 0.14 1.08 0.39 1.53 0.74v9.25c-0.27 1.34-0.78 2.35-1.53 3.02-0.74 0.64-1.75 0.97-3.02 0.97-0.87 0-1.61-0.17-2.24-0.52-0.59-0.37-1.08-0.87-1.45-1.49s-0.64-1.36-0.82-2.24c-0.14-0.87-0.22-1.81-0.22-2.83 0-2.48 0.48-4.29 1.45-5.41 0.97-1.14 2.31-1.71 4.03-1.71zm179.93 7.95c0.34 0 0.69 0.01 1.04 0.03 0.37 0 0.73 0.01 1.08 0.03v3.09c-0.12 0.32-0.32 0.65-0.59 1-0.24 0.34-0.57 0.67-0.97 0.97-0.39 0.27-0.87 0.5-1.41 0.7-0.54 0.17-1.17 0.26-1.86 0.26-0.97 0-1.76-0.27-2.38-0.82-0.62-0.57-0.93-1.29-0.93-2.16 0-0.62 0.16-1.13 0.48-1.53 0.34-0.42 0.79-0.74 1.34-0.97 0.57-0.24 1.21-0.4 1.94-0.48 0.74-0.09 1.5-0.15 2.27-0.15zm96.98 0c0.34 0 0.69 0.01 1.04 0.03 0.37 0 0.73 0.01 1.08 0.03v3.09c-0.12 0.32-0.32 0.65-0.59 1-0.24 0.34-0.57 0.67-0.97 0.97-0.39 0.27-0.87 0.5-1.41 0.7-0.54 0.17-1.17 0.26-1.86 0.26-0.97 0-1.76-0.27-2.38-0.82-0.62-0.57-0.93-1.29-0.93-2.16 0-0.62 0.16-1.13 0.48-1.53 0.34-0.42 0.79-0.74 1.34-0.97 0.57-0.24 1.21-0.4 1.94-0.48 0.74-0.09 1.5-0.15 2.27-0.15zm-150.95 4.55c-0.64 0-1.17 0.19-1.56 0.59-0.37 0.37-0.56 0.89-0.56 1.56 0 0.64 0.18 1.17 0.56 1.56 0.39 0.39 0.92 0.59 1.56 0.59 0.67 0 1.2-0.19 1.6-0.59 0.39-0.39 0.59-0.92 0.59-1.56 0-0.67-0.19-1.19-0.59-1.56-0.39-0.39-0.93-0.59-1.6-0.59z"/>
  <path d="m173.53 240.82c-8.4 0.38-14.28 2.67-17.08 7.65s-4.2 13.01-4.2 24.49v38.26c0 14.53-3.07 24.85-10.34 27.16h-0.01v1.52h0.01c7.26 2.3 10.34 12.63 10.34 27.16v38.26c0 11.48 1.4 19.51 4.2 24.49s8.68 7.27 17.08 7.65v-3.06c-10.08-3.82-10.08-19.51-10.08-27.55v-38.26c0-14.92-1.67-24.48-10.35-29.46 8.67-4.97 10.35-14.54 10.35-29.46v-38.26c0-8.03 0.00074-23.72 10.08-27.55v-3.06z" stroke-width=".32" fill="#0d71ba"/>
 </g>
 <g stroke="#0d71ba" stroke-width="3" fill="none">
  <g stroke-dasharray="9.13">
   <path d="m33.87 358.33a269.23 269.23 0 0 1 9.41 -149.06"/>
   <path d="m77.61 147.37a271.49 271.49 0 0 1 97.56 -91.29"/>
   <path d="m481.8 498.83a268.73 268.73 0 0 1 -86.06 53.71"/>
   <path d="m440.94 69.18a269.3 269.3 0 0 1 92 96.11"/>
  </g>
  <circle cy="300" cx="300" r="243"/>
 </g>
</svg>
