<svg xmlns="http://www.w3.org/2000/svg" width="600" height="600" viewBox="0 0 600 600">
  <g style="fill:#0d71ba">
    <path d="m416.83 85.62c-34.7-18.949-74.52-29.72-116.83-29.72-44.46 0-86.15 11.89-122.06 32.662l1.502 2.5957c35.47-20.517 76.64-32.258 120.56-32.258 41.2-0.000001 79.975 10.331 113.89 28.544"/>
    <path d="m94.876 167.63c-24.659 38.13-38.975 83.59-38.975 132.37 0 134.79 109.31 244.1 244.1 244.1 39.498 0 76.815-9.383 109.83-26.043l-1.3535-2.6797c-32.61 16.45-69.46 25.72-108.48 25.72-133.17 0-241.1-107.93-241.1-241.1 0.000001-48.198 14.136-93.079 38.492-130.74z"/>
    <path d="m502.04 162.97-2.4805 1.6856c26.222 38.587 41.543 85.168 41.543 135.34 0 54.152-17.846 104.12-47.98 144.36l2.4023 1.7988c30.52-40.74 48.59-91.35 48.59-146.16 0-50.786-15.515-97.964-42.062-137.03z"/>
  </g>
  <g style="stroke:#0d71ba;stroke-width:3;stroke-dasharray:9.13;fill:none">
    <path d="m156.44 529.3a271.15 271.15 0 0 1 -113.44 -144.58"/>
    <path d="m360.83 563.63a271.35 271.35 0 0 1 -60.83 6.87"/>
    <path d="m570.5 298.75q0 0.63 0 1.25a269.53 269.53 0 0 1 -23.71 110.91"/>
    <path style="stroke-dashoffset:11.4" d="m140.14 82.47a271.79 271.79 0 0 1 136.33 -51.63"/>
  </g>
  <path style="fill:#0d71ba" d="m101.76 85.311a16.29 16.29 0 0 0 -16.289 16.289v81.4a16.29 16.29 0 0 0 16.289 16.32l157.95-0.03a16.29 16.29 0 0 0 16.29 -16.29v-81.4a16.29 16.29 0 0 0 -16.24 -16.289h-158zm11.4 9.769h146.59a6.52 6.52 0 0 1 6.51 6.52v81.4a6.53 6.53 0 0 1 -6.51 6.52h-146.59a6.53 6.53 0 0 1 -6.52 -6.52v-81.4a6.52 6.52 0 0 1 6.52 -6.52zm-17.041 43.37a5.62 5.62 0 0 1 5.621 5.62 5.62 5.62 0 0 1 -5.621 5.62 5.62 5.62 0 0 1 -5.619 -5.62 5.62 5.62 0 0 1 5.619 -5.62z"/>
  <g style="fill:#0d71ba;fill-opacity:.6">
    <path d="m141.31 142.31c0-6.77 5.13-12.79 14.45-17 8.05-3.61 18.66-5.59 29.89-5.59s21.83 2 29.88 5.59c9.32 4.18 14.45 10.21 14.45 17s-5.13 12.79-14.45 17c-8.06 3.61-18.67 5.6-29.88 5.6s-21.82-2-29.89-5.6c-9.32-4.21-14.45-10.23-14.45-17zm85.15 0c0-10.68-17.93-19.05-40.81-19.05s-40.82 8.37-40.82 19.05 17.93 19 40.82 19 40.8-8.31 40.8-19z"/>
    <path d="m155.78 120.73c0-8 2.73-13.95 7.69-16.81 5.86-3.38 13.64-1.95 21.92 4 7.16 5.18 14.19 13.37 19.79 23.08 6.56 11.35 10.32 23.33 10.32 32.87 0 8-2.73 13.94-7.69 16.8-5.86 3.38-13.65 1.95-21.92-4-7.16-5.18-14.18-13.37-19.79-23.08-6.56-11.34-10.32-23.32-10.32-32.86zm56.22 43.18c0-8.94-3.59-20.28-9.84-31.12-5.36-9.28-12-17.09-18.8-22-7.08-5.12-13.51-6.49-18.09-3.84-3.88 2.23-5.94 7-5.94 13.76 0 8.93 3.59 20.27 9.84 31.11 11.42 19.84 27.63 31.18 36.83 25.83 3.92-2.23 6-6.98 6-13.74z"/>
    <path d="m155.78 163.91c0-9.53 3.76-21.52 10.31-32.88 5.6-9.7 12.63-17.89 19.79-23.08 8.28-6 16.06-7.42 21.92-4 5 2.86 7.69 8.83 7.69 16.8 0 9.53-3.76 21.5-10.31 32.86-5.6 9.7-12.63 17.9-19.79 23.08-8.27 6-16.06 7.42-21.92 4-5-2.86-7.69-8.84-7.69-16.8zm56.22-43.19c0-6.76-2-11.52-5.93-13.75-9.25-5.33-25.46 6-36.91 25.82-6.26 10.84-9.84 22.19-9.84 31.12 0 6.77 2.05 11.52 5.94 13.75 4.59 2.65 11 1.28 18.1-3.84 6.77-4.89 13.44-12.7 18.8-22 6.23-10.82 9.84-22.16 9.84-31.1z"/>
  </g>
  <circle cx="229.2" style="fill:#0d71ba" r="5.25" cy="142.25"/>
  <circle cx="207.24" style="fill:#0d71ba" r="5.25" cy="104.35"/>
  <circle cx="162.39" style="fill:#0d71ba" r="5.24" cy="180.28"/>
  <circle cx="207.24" style="fill:#0d71ba" r="5.24" cy="180.28"/>
  <circle cx="162.39" style="fill:#0d71ba" r="5.25" cy="104.35"/>
  <circle cx="142" style="fill:#0d71ba" r="5.25" cy="142"/>
  <path style="fill:#0d71ba" d="m185.98 131.13a11.19 11.19 0 0 0 -11.53 11.18 11.19 11.19 0 0 0 11.19 11.2 11.19 11.19 0 0 0 0.34 -22.38zm2.21 3.96a3.61 3.61 0 0 1 3.61 3.61 3.61 3.61 0 0 1 -3.61 3.61 3.61 3.61 0 0 1 -3.61 -3.61 3.61 3.61 0 0 1 3.61 -3.61z"/>
  <path style="fill:#0d71ba" d="m190.11 232.32a17.43 17.43 0 0 0 -17.44 17.44v169.11a17.43 17.43 0 0 0 17.44 17.43h179.57v-6.25a6.69 6.69 0 0 1 6.69 -6.69s7.75-1.26 13.32 11.23c0.25 0.54 0.45 1.12 0.65 1.71h7.23v-4.27a9.67 9.67 0 0 1 0.02 -0.57v-17.82h-207.47c-3.87 0-6.98-3.11-6.98-6.98v-156.9c0-3.87 3.11-6.98 6.98-6.98h261.5c3.87 0 6.98 3.11 6.98 6.98v156.9c0 0.82-0.15 1.61-0.41 2.34h1.96a10 10 0 0 1 8.91 5.48v-164.72a17.43 17.43 0 0 0 -17.43 -17.44h-261.52zm231.68 181.32v8.72h0.01v-3.41h0.05a10 10 0 0 1 1.56 -5.31h-1.62zm22.64 0a10 10 0 0 1 1.57 5.31 10 10 0 0 1 1.56 -5.31h-3.13zm-122.23 4.98a6.59 6.59 0 0 1 6.59 6.59 6.59 6.59 0 0 1 -6.59 6.59 6.59 6.59 0 0 1 -6.59 -6.59 6.59 6.59 0 0 1 6.59 -6.59z"/>
  <path style="fill:#0d71ba;fill-opacity:.66667" d="m409.7 339.18a18 18 0 0 0 -18 18 18 18 0 0 0 5.89 13.29v-15.47c0-5.56 4.47-10.03 10.03-10.03h4.14c5.56 0 10.03 4.47 10.03 10.03v15.49a18 18 0 0 0 5.91 -13.31 18 18 0 0 0 -18 -18z"/>
  <path style="opacity:.6;stroke:#0d71ba;stroke-width:2;fill:none" d="m397.83 377.14c-6.7995-4.0499-11.355-11.475-11.355-19.964 0-12.824 10.396-23.22 23.22-23.22s23.22 10.396 23.22 23.22c0 8.3987-4.459 15.756-11.139 19.834"/>
  <path style="stroke:#0d71ba;stroke-width:3;fill:none" d="m407.62 344.97c-5.5566 0-10.029 4.4727-10.029 10.029v76.459a9.67 9.67 0 0 0 -0.0195 0.57032v39.941c-8.2953-9.6659-3.4571-27.467-7.8809-37.381-5.57-12.49-13.32-11.23-13.32-11.23a6.69 6.69 0 0 0 -6.6894 6.6914v52c0 21.236 28.975 24.948 39.252 34.482 1.5276 1.5373 3.0461 3.2808 4.4375 5.5059 3.6 5.77 3.4609 26.061 3.4609 26.061h58.289s-0.11976-20.29 3.4902-26.1c6.51-10.41 15.801-10.59 15.801-25.83v-73.811h-0.0293v-3.3594a10 10 0 0 0 -10 -10h-4.1504a10 10 0 0 0 -9.998 9.9492h-0.084a10 10 0 0 0 -9.9981 -9.9492h-4.1504a10 10 0 0 0 -9.998 9.9492h-0.004a10 10 0 0 0 -9.998 -9.9492h-4.1504a10 10 0 0 0 -9.998 9.9492h-0.0508v3.4102h-0.0117v-67.359c0-5.5566-4.4727-10.029-10.029-10.029z"/>
  <path style="opacity:.6;stroke:#0d71ba;stroke-width:2;fill:none" d="m411.77 349.43h-4.15a5.57 5.57 0 0 0 -5.57 5.56v6.76h15.29v-6.75a5.58 5.58 0 0 0 -5.57 -5.57z"/>
  <path style="opacity:.6;stroke:#0d71ba;stroke-width:2;fill:none" d="m381.56 439.67a31.76 31.76 0 0 0 -0.43 -3.25c-1.69-8.82-7.84-8.61-8.54-8.64l-0.16 0.06h-0.56a2.23 2.23 0 0 0 -2.23 2.23v9.6z"/>
  <path style="fill:#559bcf" d="m415.6 536.5a5.8 5.8 0 0 0 -5.8 5.8v46.51l36.301 0.004v-52.31z"/>
  <path style="fill:#0d71ba" d="m446 536.5v52.31l36.31 0.01v-46.52a5.8 5.8 0 0 0 -5.81 -5.8h-30.5zm16.87 13.47a7.44 7.44 0 0 1 7.44 7.44 7.44 7.44 0 0 1 -7.44 7.44 7.44 7.44 0 0 1 -7.44 -7.44 7.44 7.44 0 0 1 7.44 -7.44z"/>
  <path style="fill:#0d71ba;fill-opacity:0.4" d="m223.99 298.41a17 17 0 0 0 -0.05 5.82h33.58a17 17 0 0 0 -0.03 -5.82h-33.5z"/>
  <path style="fill:#0d71ba;fill-opacity:0.4" d="m228.93 289.2a17 17 0 0 0 -3.95 5.82h31.51a17 17 0 0 0 -3.96 -5.82h-23.6z"/>
  <path style="fill:#0d71ba;fill-opacity:0.4" d="m224.86 307.61a17 17 0 0 0 3.8 5.82h24.14a17 17 0 0 0 3.79 -5.82h-31.73z"/>
  <path style="fill:#0d71ba;fill-opacity:0.4" d="m224.01 346.86a17 17 0 0 0 -0.27 2.91 17 17 0 0 0 0.25 2.91h33.5a17 17 0 0 0 0.01 -5.82h-33.49z"/>
  <path style="fill:#0d71ba;fill-opacity:0.4" d="m228.83 337.65a17 17 0 0 0 -3.87 5.82h31.58a17 17 0 0 0 -3.89 -5.82h-23.82z"/>
  <path style="fill:#0d71ba;fill-opacity:0.4" d="m224.97 356.09a17 17 0 0 0 3.89 5.82h23.78a17 17 0 0 0 3.88 -5.82h-31.55z"/>
  <path style="fill:#0d71ba;fill-opacity:0.4" d="m228.88 385.98a17 17 0 0 0 -3.85 5.81 2.91 2.91 0 0 0 0.07 0h31.41a17 17 0 0 0 -3.88 -5.81h-23.75z"/>
  <path style="fill:#0d71ba;fill-opacity:0.4" d="m224.94 259.42a17 17 0 0 0 3.88 5.82h23.8a17 17 0 0 0 3.87 -5.82h-31.55z"/>
  <path style="stroke:#0d71ba;fill:#0d71ba" d="m260.66 325.61a31.18 31.18 0 0 1 -19.9 7.17 17 17 0 0 1 0 34 31.36 31.36 0 0 0 -31.32 31.33h14.35a17 17 0 0 1 17 -17 31.32 31.32 0 0 0 19.93 -55.5z"/>
  <path style="stroke:#0d71ba;fill:#0d71ba" d="m220.8 325.61a31.19 31.19 0 0 1 19.9 -7.17 17 17 0 0 1 0 -34 31.37 31.37 0 0 0 31.33 -31.33h-14.31a17 17 0 0 1 -17 17 31.32 31.32 0 0 0 -19.92 55.49z"/>
  <path style="stroke:#0d71ba;fill:none" d="m220.8 277.29a31.19 31.19 0 0 1 19.92 -7.17 17 17 0 0 1 -17 -17h-14.32a31.28 31.28 0 0 0 11.4 24.17z"/>
  <path style="stroke:#0d71ba;fill:none" d="m260.66 373.93a31.18 31.18 0 0 1 -19.93 7.17 17 17 0 0 1 17 17h14.35a31.29 31.29 0 0 0 -11.42 -24.17z"/>
  <path style="stroke:#0d71ba;fill:none" d="m223.74 349.77a17 17 0 0 1 17 -17h0.06a31.32 31.32 0 0 0 19.9 -55.49 31.2 31.2 0 0 1 -19.93 7.17 17 17 0 0 1 0 34h-0.06a31.32 31.32 0 0 0 -19.9 55.49 31.21 31.21 0 0 1 19.92 -7.17 17 17 0 0 1 -16.99 -17z"/>
  <g style="fill:#0d71ba" opacity=".7">
    <path d="m365.83 332.45a3.58 3.58 0 0 1 -3.44 3.7h-66.5a3.58 3.58 0 0 1 -3.44 -3.7 3.58 3.58 0 0 1 3.44 -3.7h66.5a3.58 3.58 0 0 1 3.44 3.7z"/>
    <path d="m365.83 347.6a3.58 3.58 0 0 1 -3.44 3.7h-66.5a3.58 3.58 0 0 1 -3.44 -3.7 3.58 3.58 0 0 1 3.44 -3.71h66.5a3.58 3.58 0 0 1 3.44 3.71z"/>
    <path d="m365.83 362.75a3.58 3.58 0 0 1 -3.44 3.7h-66.5a3.58 3.58 0 0 1 -3.44 -3.7 3.58 3.58 0 0 1 3.44 -3.7h66.5a3.58 3.58 0 0 1 3.44 3.7z"/>
  </g>
  <g style="fill:#0d71ba">
    <path d="m337.23 263.55 h-17.56a3.53 3.53 0 0 0 -3.23 2 20.17 20.17 0 0 0 -7.29 -1.91 102.77 102.77 0 0 0 -12.53 1 0.7 0.7 0 0 0 -0.6 0.69v1.67l-3.11 0.45a0.7 0.7 0 0 0 -0.6 0.69v32.86a0.7 0.7 0 0 0 0.7 0.7h0.13c0.11 0 10.6-2.07 15.49-2.15a32.56 32.56 0 0 1 4 0.17 11.6 11.6 0 0 1 4.12 1.17 3.59 3.59 0 0 0 3 1.49h17.56a3.37 3.37 0 0 0 3.51 -3.21v-32.41a3.37 3.37 0 0 0 -3.51 -3.21m-39.81 2.38a96.17 96.17 0 0 1 11.72 -0.94 19.54 19.54 0 0 1 7 1.92v29.59h-0.18a23.27 23.27 0 0 0 -4.91 -1.09c-2.76-0.44-8.76 0.33-12.11 0.83l-1.55 0.24v-30.55zm11.19 32.16c-4.24 0.07-12.27 1.53-14.9 2v-31.33l2.3-0.34v28.84a0.7 0.7 0 0 0 0.25 0.54 0.69 0.69 0 0 0 0.53 0.16l1.32-0.22h0.16a72.3 72.3 0 0 1 11.53 -1c0.35 0 0.69 0 1 0.08 1.65 0.28 3.55 0.75 4.62 1l0.43 0.15 0.19 1v0.15a14 14 0 0 0 -3.43 -0.79 34.52 34.52 0 0 0 -4.12 -0.18m19.66 3.28a1.09 1.09 0 1 1 1.09 -1.09 1.09 1.09 0 0 1 -1.09 1.09m10.37-4.5a1.35 1.35 0 0 1 -1.41 1.29h-17.52a1.35 1.35 0 0 1 -1.41 -1.29v-30.17a1.35 1.35 0 0 1 1.41 -1.29h17.56a1.35 1.35 0 0 1 1.41 1.29z"/>
    <path d="m321.48 290.86 v-19.93h7.31a14 14 0 0 1 3.06 0.32 6.9 6.9 0 0 1 2.48 1.06 5.21 5.21 0 0 1 1.67 2 7.65 7.65 0 0 1 0 6.05 5.84 5.84 0 0 1 -1.71 2.1 7.3 7.3 0 0 1 -2.49 1.21 11.23 11.23 0 0 1 -3 0.39h-2.8v6.8zm4.52-10.33h2.51q3.66 0 3.66-3.17a2.56 2.56 0 0 0 -0.93 -2.25 4.72 4.72 0 0 0 -2.73 -0.65h-2.51z"/>
    <path d="m344.86 285.11 v-9.42h4.49v8.86a4 4 0 0 0 0.46 2.27 1.67 1.67 0 0 0 1.44 0.61 2.45 2.45 0 0 0 1.43 -0.4 5.93 5.93 0 0 0 1.25 -1.29v-10.05h4.49v15.16h-3.67l-0.33-2.09h-0.09a8.29 8.29 0 0 1 -2.1 1.81 5.21 5.21 0 0 1 -2.68 0.65 4 4 0 0 1 -3.55 -1.62 7.87 7.87 0 0 1 -1.11 -4.49"/>
    <path d="m364.83 290.86 v-21.43h4.49v5.27l-0.12 2.3a6.92 6.92 0 0 1 1.91 -1.24 5.25 5.25 0 0 1 2.09 -0.44 5.5 5.5 0 0 1 2.47 0.55 5.38 5.38 0 0 1 1.88 1.54 7.15 7.15 0 0 1 1.19 2.42 11.3 11.3 0 0 1 0.42 3.17 10.48 10.48 0 0 1 -0.54 3.48 8 8 0 0 1 -1.44 2.58 6.3 6.3 0 0 1 -2 1.6 5.35 5.35 0 0 1 -2.36 0.55 4.66 4.66 0 0 1 -2 -0.49 6.41 6.41 0 0 1 -1.92 -1.46h-0.12l-0.36 1.58zm4.49-4.28a3.69 3.69 0 0 0 1.22 0.77 3.57 3.57 0 0 0 1.19 0.22 2.45 2.45 0 0 0 2 -1.05 5.57 5.57 0 0 0 0.82 -3.4q0-4.08-2.63-4.1a3.55 3.55 0 0 0 -2.6 1.39z"/>
    <path d="m385.28 290.86 v-19.93h5.13l3.32 9 1.19 3.48h0.08l1.19-3.48 3.23-9h5v19.92h-4.42v-7.3q0-0.73 0.06-1.62t0.17-1.79q0.1-0.9 0.2-1.78t0.19-1.6h-0.13l-1.67 4.61-3.06 7.73h-1.76l-3.08-7.73-1.59-4.61h-0.15q0.1 0.73 0.2 1.6t0.19 1.78q0.08 0.9 0.15 1.78t0.06 1.63v7.3z"/>
    <path d="m410.19 283.28 a8.58 8.58 0 0 1 0.61 -3.31 8 8 0 0 1 1.6 -2.51 6.86 6.86 0 0 1 2.28 -1.57 7.17 7.17 0 0 1 5.48 0 5.59 5.59 0 0 1 2 1.52 6.42 6.42 0 0 1 1.21 2.31 10.14 10.14 0 0 1 0.4 2.89 9.7 9.7 0 0 1 -0.06 1.12q-0.06 0.51-0.12 0.78h-9.07a3.63 3.63 0 0 0 1.35 2.45 4.33 4.33 0 0 0 2.59 0.75 6.37 6.37 0 0 0 3.27 -1l1.49 2.73a10.08 10.08 0 0 1 -2.58 1.29 8.76 8.76 0 0 1 -2.79 0.47 8.39 8.39 0 0 1 -3 -0.54 7 7 0 0 1 -2.44 -1.56 7.13 7.13 0 0 1 -1.62 -2.49 9.09 9.09 0 0 1 -0.58 -3.36m4.3-1.55h5.49a3.43 3.43 0 0 0 -0.58 -2.07 2.26 2.26 0 0 0 -2 -0.8 2.8 2.8 0 0 0 -1.88 0.69 3.55 3.55 0 0 0 -1.06 2.17"/>
    <path d="m428.7  283.28 a9.62 9.62 0 0 1 0.54 -3.33 8.26 8.26 0 0 1 1.4 -2.49 5.93 5.93 0 0 1 2 -1.58 5.41 5.41 0 0 1 2.34 -0.55 4.54 4.54 0 0 1 2.1 0.43 7.75 7.75 0 0 1 1.63 1.16l-0.19-2.33v-5.16h4.48v21.42h-3.66l-0.31-1.49h-0.12a7.1 7.1 0 0 1 -1.87 1.33 4.8 4.8 0 0 1 -2.16 0.54 5.82 5.82 0 0 1 -2.55 -0.55 5.56 5.56 0 0 1 -2 -1.57 7.32 7.32 0 0 1 -1.25 -2.49 11.6 11.6 0 0 1 -0.44 -3.33m4.61-0.06a5.92 5.92 0 0 0 0.72 3.3 2.32 2.32 0 0 0 2 1 2.88 2.88 0 0 0 1.33 -0.31 3.4 3.4 0 0 0 1.15 -1.07v-6.15a3.61 3.61 0 0 0 -1.25 -0.77 3.91 3.91 0 0 0 -1.2 -0.23 2.39 2.39 0 0 0 -1.89 1 5.07 5.07 0 0 0 -0.82 3.19"/>
    <path d="m387.23 308 v-11.27h1.52v11.35a0.76 0.76 0 0 0 0.13 0.51 0.39 0.39 0 0 0 0.29 0.14h0.33l0.2 1.16a1.35 1.35 0 0 1 -0.34 0.11 2.65 2.65 0 0 1 -0.52 0 1.43 1.43 0 0 1 -1.24 -0.51 2.57 2.57 0 0 1 -0.37 -1.51"/>
    <path d="m400.16 307.48 a2.47 2.47 0 0 1 1.31 -2.24 10.86 10.86 0 0 1 4.17 -1.09 4.25 4.25 0 0 0 -0.08 -0.83 2 2 0 0 0 -0.29 -0.73 1.59 1.59 0 0 0 -0.56 -0.51 1.85 1.85 0 0 0 -0.9 -0.19 3.51 3.51 0 0 0 -1.45 0.3 7.49 7.49 0 0 0 -1.2 0.67l-0.6-1.06a10 10 0 0 1 1.52 -0.77 5.12 5.12 0 0 1 2 -0.37 2.76 2.76 0 0 1 2.38 1 4.39 4.39 0 0 1 0.74 2.67v5.46h-1.24l-0.15-1.06a7.84 7.84 0 0 1 -1.39 0.91 3.38 3.38 0 0 1 -1.57 0.38 2.72 2.72 0 0 1 -1.88 -0.66 2.37 2.37 0 0 1 -0.74 -1.87m1.49-0.12a1.26 1.26 0 0 0 0.45 1.09 1.84 1.84 0 0 0 1.11 0.33 2.6 2.6 0 0 0 1.22 -0.3 5.92 5.92 0 0 0 1.22 -0.89v-2.47a15.29 15.29 0 0 0 -1.89 0.34 4.83 4.83 0 0 0 -1.24 0.48 1.78 1.78 0 0 0 -0.67 0.63 1.55 1.55 0 0 0 -0.2 0.78"/>
    <path d="m418.73 309.79 v-13h1.52v5.16a6.38 6.38 0 0 1 1.32 -0.9 3.17 3.17 0 0 1 1.46 -0.36 3.43 3.43 0 0 1 1.52 0.32 3 3 0 0 1 1.11 0.92 4.21 4.21 0 0 1 0.67 1.43 7.07 7.07 0 0 1 0.23 1.86 6.25 6.25 0 0 1 -0.31 2 4.61 4.61 0 0 1 -0.84 1.52 3.59 3.59 0 0 1 -1.23 0.94 3.46 3.46 0 0 1 -1.47 0.32 3.25 3.25 0 0 1 -1.29 -0.29 4.48 4.48 0 0 1 -1.25 -0.82h-0.07l-0.13 0.89zm1.52-2a3.82 3.82 0 0 0 1.16 0.72 3 3 0 0 0 1 0.21 2.13 2.13 0 0 0 1 -0.24 2.43 2.43 0 0 0 0.8 -0.69 3.37 3.37 0 0 0 0.53 -1.11 5.29 5.29 0 0 0 0.19 -1.48 6.57 6.57 0 0 0 -0.13 -1.33 2.9 2.9 0 0 0 -0.41 -1 2 2 0 0 0 -0.73 -0.67 2.23 2.23 0 0 0 -1.07 -0.24 3.68 3.68 0 0 0 -2.38 1.21z"/>
    <path d="m436.7 308.77 0.75-1a6.29 6.29 0 0 0 1.2 0.77 3.23 3.23 0 0 0 1.42 0.3 1.89 1.89 0 0 0 1.32 -0.41 1.29 1.29 0 0 0 0.44 -1 1 1 0 0 0 -0.18 -0.6 1.83 1.83 0 0 0 -0.47 -0.45 3.48 3.48 0 0 0 -0.65 -0.34l-0.73-0.3q-0.47-0.16-0.95-0.37a3.78 3.78 0 0 1 -0.85 -0.51 2.68 2.68 0 0 1 -0.62 -0.71 1.84 1.84 0 0 1 -0.24 -1 2.37 2.37 0 0 1 0.82 -1.81 2.86 2.86 0 0 1 1 -0.53 4 4 0 0 1 1.28 -0.19 4 4 0 0 1 1.54 0.3 5 5 0 0 1 1.22 0.72l-0.72 0.95a4.66 4.66 0 0 0 -1 -0.57 2.64 2.64 0 0 0 -1.08 -0.22 1.73 1.73 0 0 0 -1.24 0.39 1.22 1.22 0 0 0 -0.4 0.9 0.9 0.9 0 0 0 0.17 0.54 1.51 1.51 0 0 0 0.44 0.4 4 4 0 0 0 0.63 0.31l0.74 0.29 1 0.38a3.63 3.63 0 0 1 0.87 0.51 2.54 2.54 0 0 1 0.64 0.74 2.11 2.11 0 0 1 0.25 1.07 2.48 2.48 0 0 1 -0.21 1 2.45 2.45 0 0 1 -0.63 0.84 3.06 3.06 0 0 1 -1 0.58 4.22 4.22 0 0 1 -1.4 0.21 4.78 4.78 0 0 1 -1.81 -0.35 5.62 5.62 0 0 1 -1.51 -0.89"/>
  </g>
  <path style="fill:#4b98d0" d="m334.56 481.27a7 7 0 0 0 -7 -7h-7.2v13.94h7.19a7 7 0 0 0 7.01 -6.94z"/>
  <rect style="stroke:#0d71ba;fill:none" height="13.94" width="8.35" y="474.3" x="311.98"/>
  <rect style="stroke:#0d71ba;fill:#0d71ba" height="13.94" width="94.77" y="474.3" x="217.2"/>
  <polygon style="stroke:#0d71ba;fill:none" points="213.18 486.96 217.2 488.24 217.2 474.3 213.18 475.58 206.28 477.78 206.28 484.75"/>
  <polygon style="stroke:#0d71ba;fill:#0d71ba" points="206.28 484.75 206.28 477.78 195.35 481.27"/>
  <path style="fill:#0d71ba" d="m328.71 95.35-5.9844 1.9297v103.28l17.34-5.5996c11.176-3.5818 22.844-5.3908 34.58-5.3613 12.074 0.0909 23.618 1.905 34.58 5.3613l4.6387 1.5 4.6406-1.5c11.195-3.5248 24.056-5.3292 34.59-5.3613 11.735-0.0162 23.4 1.8061 34.57 5.4004l17.35 5.5996v-103.32l-5.9629-1.9238v93.953c-30.481-8.8203-60.817-6.9138-85.184 1.5586-36.82-12.398-64.518-7.6311-85.158-1.5684z"/>
  <path style="stroke:#0d71ba;fill:none" d="m413.84 190.86a111.23 94.455 47.339 0 0 -78.44 -12.838v-103.65a111.18 94.408 47.339 0 1 78.44 12.838z"/>
  <path style="stroke:#0d71ba;fill:none" d="m492.31 178.03a94.464 111.24 42.661 0 0 -78.44 12.838v-103.65a94.418 111.19 42.661 0 1 78.44 -12.84z"/>
  <g style="opacity:.6;fill:#0d71ba">
    <path d="m484 90.463a76.619 91.413 42.474 0 0 -64 11.314v-5.79a76.61 91.403 42.474 0 1 64 -11.314z"/>
    <path d="m484 105.17a76.628 91.424 42.474 0 0 -64 11.314v-5.83a76.61 91.403 42.474 0 1 64 -11.31z"/>
    <path d="m484 119.87a76.61 91.403 42.474 0 0 -64 11.314v-5.79a76.628 91.424 42.474 0 1 64 -11.314z"/>
    <path d="m484 134.58a76.628 91.424 42.474 0 0 -64 11.314v-5.79a76.628 91.424 42.474 0 1 64 -11.314z"/>
    <path d="m484 149.29a76.592 91.381 42.474 0 0 -64 11.314v-5.79a76.592 91.381 42.474 0 1 64 -11.31z"/>
    <path d="m484 164a76.592 91.381 42.474 0 0 -64 11.314v-5.79a76.628 91.424 42.474 0 1 64 -11.314z"/>
  </g>
  <path style="opacity:.6;stroke:#0d71ba;stroke-width:1.0307;fill:none" d="m406.37 171.73a86.851 72.312 37.968 0 0 -62.5 -10.52v-27.43a86.851 72.312 37.968 0 1 62.496 10.521z"/>
  <g style="fill:#0d71ba">
    <path d="m141 291.06a25.41 25.41 0 0 0 -14.79 4.53l3.09 2.47a9.12 9.12 0 0 1 3 4.46 16.36 16.36 0 0 1 8.54 -2.27c2.95 0 5.92-0.87 6.79-3.52 0.86-2.44-1.63-5.59-6.63-5.67z"/>
    <path d="m62.31 375.92a25.35 25.35 0 0 0 -1 15c1.18 4.87 4.8 6.56 7 5.24 2.38-1.42 2.56-4.52 1.92-7.4a16.37 16.37 0 0 1 0.42 -9.15 9.09 9.09 0 0 1 -6.22 -2z"/>
  </g>
  <path style="fill:#559bcf" d="m105.9 287.8-16.97 34.2-13.19 26.5-12.08 24.3c0 0.07 0 0.14-0.08 0.21a25.44 25.44 0 0 0 -1.28 2.91l2.15 1.71a9.09 9.09 0 0 0 6.22 2 16.63 16.63 0 0 1 1.2 -2.72l8.1-16.3 9.5-19.12 13.36-26.91 12.6-25.36a4.52 4.52 0 0 0 0.46 -1.7 9.13 9.13 0 0 0 -9.99 0.28z"/>
  <path style="fill:#9ec6e3" d="m124.07 297.23-0.19 0.12-32.55 26.58-11.74 9.58-30.83 25.17a9.12 9.12 0 0 0 2.87 8.68 4.58 4.58 0 0 0 2.18 -1l33.12-27 11.74-9.58 16.88-13.78 14.1-11.51a16.43 16.43 0 0 1 2.68 -1.94 9.12 9.12 0 0 0 -3 -4.46l-3.09-2.47a25.27 25.27 0 0 0 -2.17 1.61z"/>
  <g style="fill:#0d71ba">
    <path d="m96.21 358.63-15.95 20a12.34 12.34 0 0 1 -17.32 1.95l-11.81-9.43a12.34 12.34 0 0 1 -1.95 -17.32l15.95-20a12.34 12.34 0 0 1 17.33 -1.95l11.81 9.43a12.34 12.34 0 0 1 1.94 17.32zm-42-0.83a5.94 5.94 0 0 0 0.94 8.34l11.81 9.43a5.94 5.94 0 0 0 8.34 -0.94l15.95-20a5.94 5.94 0 0 0 -0.93 -8.34l-11.81-9.43a5.94 5.94 0 0 0 -8.34 0.94z"/>
    <path d="m87.88 320-10.26 12.89 7.82 6.24 10.29-12.89c-2.67-1.99-5.27-4.11-7.85-6.24z"/>
    <path d="m133.24 312.25-15.95 20a12.34 12.34 0 0 1 -17.29 1.92l-11.81-9.43a12.34 12.34 0 0 1 -1.95 -17.32l15.95-20a12.34 12.34 0 0 1 17.33 -1.94l11.81 9.43a12.34 12.34 0 0 1 1.91 17.34zm-42-0.83a5.94 5.94 0 0 0 0.94 8.34l11.82 9.42a5.94 5.94 0 0 0 8.34 -0.94l15.95-20a5.94 5.94 0 0 0 -0.93 -8.34l-11.81-9.43a5.94 5.94 0 0 0 -8.34 0.94z"/>
    <path d="m49.7 353.17-6.7 8.4a4.59 4.59 0 0 0 7.17 5.72l1.28-1.61-1.22-5.06c-1.79-1 2.88-3.56 1.72-5.33a5.29 5.29 0 0 0 -2.25 -2.12z"/>
    <path d="m101.65 288.09 6.7-8.39a4.59 4.59 0 1 1 7.17 5.72l-1.29 1.58h-5.23c-1.41-1.51-2.83 3.6-4.82 2.87a5.29 5.29 0 0 1 -2.53 -1.78z"/>
  </g>
  <g style="opacity:.6;fill:#0d71ba">
    <path d="m343.29 90.817a91.413 76.619 47.526 0 1 64 11.314v-5.79a91.403 76.61 47.526 0 0 -64 -11.314z"/>
    <path d="m343.29 105.53a91.424 76.628 47.526 0 1 64 11.314v-5.83a91.403 76.61 47.526 0 0 -64 -11.314z"/>
    <path d="m343.29 120.23a91.403 76.61 47.526 0 1 64 11.314v-5.79a91.424 76.628 47.526 0 0 -64 -11.314z"/>
  </g>
  <path style="stroke:#0d71ba;fill:#0d71ba" d="m220.8 325.61a31.19 31.19 0 0 1 19.9 -7.17 17 17 0 0 1 0 -34 31.37 31.37 0 0 0 31.33 -31.33h-14.31a17 17 0 0 1 -17 17 31.32 31.32 0 0 0 -19.92 55.49z"/>
  <path style="stroke:#0d71ba;fill:none" d="m335.42 84.109c-2.4387 0.50846-4.6988 1.0887-6.7148 1.75v103.44c36.699-10.865 65.485-5.0638 85.139 1.5625-5.2392-3.3324-38.885-22.336-78.424-12.83z"/>
  <path style="stroke:#0d71ba;fill:none" d="m492.3 84.109c2.4387 0.50846 4.6988 1.0887 6.7148 1.75v103.44c-36.699-10.865-65.485-5.0638-85.139 1.5625 5.2392-3.3324 38.885-22.336 78.424-12.83z"/>
</svg>
